G04*
G04 #@! TF.GenerationSoftware,Altium Limited,Altium Designer,25.8.1 (18)*
G04*
G04 Layer_Color=128*
%FSLAX44Y44*%
%MOMM*%
G71*
G04*
G04 #@! TF.SameCoordinates,71B8C197-EE49-42B5-B996-358C315723FC*
G04*
G04*
G04 #@! TF.FilePolarity,Positive*
G04*
G01*
G75*
%ADD50C,0.1270*%
D50*
X376240Y289560D02*
X416240D01*
X396240Y269560D02*
Y309560D01*
X374970Y819150D02*
X414970D01*
X394970Y799150D02*
Y839150D01*
X398760Y508000D02*
X408960D01*
X403860Y502900D02*
Y513100D01*
X398760Y533400D02*
X408960D01*
X403860Y528300D02*
Y538500D01*
X398760Y558800D02*
X408960D01*
X403860Y553700D02*
Y563900D01*
X398760Y448310D02*
X408960D01*
X403860Y443210D02*
Y453410D01*
X398760Y422910D02*
X408960D01*
X403860Y417810D02*
Y428010D01*
X398760Y397510D02*
X408960D01*
X403860Y392410D02*
Y402610D01*
X398760Y669290D02*
X408960D01*
X403860Y664190D02*
Y674390D01*
X398760Y643890D02*
X408960D01*
X403860Y638790D02*
Y648990D01*
X398760Y618490D02*
X408960D01*
X403860Y613390D02*
Y623590D01*
X891860Y289560D02*
X931860D01*
X911860Y269560D02*
Y309560D01*
X717530Y364490D02*
X727730D01*
X722630Y359390D02*
Y369590D01*
X898780Y718670D02*
X914780D01*
X906780Y710670D02*
Y726670D01*
X898780Y788670D02*
X914780D01*
X906780Y780670D02*
Y796670D01*
X773050Y718670D02*
X789050D01*
X781050Y710670D02*
Y726670D01*
X773050Y788670D02*
X789050D01*
X781050Y780670D02*
Y796670D01*
X742930Y364490D02*
X753130D01*
X748030Y359390D02*
Y369590D01*
X859770Y364490D02*
X869970D01*
X864870Y359390D02*
Y369590D01*
X834370Y364490D02*
X844570D01*
X839470Y359390D02*
Y369590D01*
X844804Y581660D02*
X851916D01*
X848360Y578104D02*
Y585216D01*
X740664Y585470D02*
X747776D01*
X744220Y581914D02*
Y589026D01*
X848614Y619760D02*
X855726D01*
X852170Y616204D02*
Y623316D01*
M02*
