G04*
G04 #@! TF.GenerationSoftware,Altium Limited,Altium Designer,25.8.1 (18)*
G04*
G04 Layer_Color=8421504*
%FSLAX44Y44*%
%MOMM*%
G71*
G04*
G04 #@! TF.SameCoordinates,71B8C197-EE49-42B5-B996-358C315723FC*
G04*
G04*
G04 #@! TF.FilePolarity,Positive*
G04*
G01*
G75*
%ADD17R,1.9812X0.5588*%
%ADD18R,2.5000X1.0000*%
%ADD19R,2.1000X2.2000*%
%ADD20R,1.4000X1.1000*%
%ADD21R,1.1000X1.4000*%
G04:AMPARAMS|DCode=22|XSize=2.5mm|YSize=1mm|CornerRadius=0.125mm|HoleSize=0mm|Usage=FLASHONLY|Rotation=0.000|XOffset=0mm|YOffset=0mm|HoleType=Round|Shape=RoundedRectangle|*
%AMROUNDEDRECTD22*
21,1,2.5000,0.7500,0,0,0.0*
21,1,2.2500,1.0000,0,0,0.0*
1,1,0.2500,1.1250,-0.3750*
1,1,0.2500,-1.1250,-0.3750*
1,1,0.2500,-1.1250,0.3750*
1,1,0.2500,1.1250,0.3750*
%
%ADD22ROUNDEDRECTD22*%
%ADD23R,2.7000X2.6000*%
%ADD24R,2.1000X2.7000*%
%ADD25R,2.1000X2.0000*%
%ADD26R,1.0000X2.5000*%
G04:AMPARAMS|DCode=27|XSize=1.5mm|YSize=1.5mm|CornerRadius=0.225mm|HoleSize=0mm|Usage=FLASHONLY|Rotation=0.000|XOffset=0mm|YOffset=0mm|HoleType=Round|Shape=RoundedRectangle|*
%AMROUNDEDRECTD27*
21,1,1.5000,1.0500,0,0,0.0*
21,1,1.0500,1.5000,0,0,0.0*
1,1,0.4500,0.5250,-0.5250*
1,1,0.4500,-0.5250,-0.5250*
1,1,0.4500,-0.5250,0.5250*
1,1,0.4500,0.5250,0.5250*
%
%ADD27ROUNDEDRECTD27*%
G36*
X655340Y534250D02*
X679340D01*
Y518250D01*
X654287D01*
X652252Y518795D01*
X650428Y519848D01*
X648938Y521338D01*
X647885Y523162D01*
X647340Y525197D01*
Y527303D01*
X647885Y529338D01*
X648938Y531162D01*
X650428Y532652D01*
X652252Y533705D01*
X654287Y534250D01*
X655340Y534250D01*
D02*
G37*
G36*
X480588Y533705D02*
X482412Y532652D01*
X483902Y531162D01*
X484955Y529338D01*
X485500Y527303D01*
Y525197D01*
X484955Y523162D01*
X483902Y521338D01*
X482412Y519848D01*
X480588Y518795D01*
X478553Y518250D01*
X453500D01*
Y534250D01*
X477500D01*
X478553Y534250D01*
X480588Y533705D01*
D02*
G37*
G36*
X655340Y508850D02*
X679340D01*
Y492850D01*
X654287D01*
X652252Y493395D01*
X650428Y494448D01*
X648938Y495938D01*
X647885Y497762D01*
X647340Y499797D01*
Y501903D01*
X647885Y503938D01*
X648938Y505762D01*
X650428Y507252D01*
X652252Y508305D01*
X654287Y508850D01*
X655340Y508850D01*
D02*
G37*
G36*
X480588Y508305D02*
X482412Y507252D01*
X483902Y505762D01*
X484955Y503938D01*
X485500Y501903D01*
Y499797D01*
X484955Y497762D01*
X483902Y495938D01*
X482412Y494448D01*
X480588Y493395D01*
X478553Y492850D01*
X453500D01*
Y508850D01*
X477500D01*
X478553Y508850D01*
X480588Y508305D01*
D02*
G37*
G36*
X655340Y483450D02*
X679340D01*
Y467450D01*
X654287D01*
X652252Y467995D01*
X650428Y469048D01*
X648938Y470538D01*
X647885Y472362D01*
X647340Y474397D01*
Y476503D01*
X647885Y478538D01*
X648938Y480362D01*
X650428Y481852D01*
X652252Y482905D01*
X654287Y483450D01*
X655340Y483450D01*
D02*
G37*
G36*
X480588Y482905D02*
X482412Y481852D01*
X483902Y480362D01*
X484955Y478538D01*
X485500Y476503D01*
Y474397D01*
X484955Y472362D01*
X483902Y470538D01*
X482412Y469048D01*
X480588Y467995D01*
X478553Y467450D01*
X453500D01*
Y483450D01*
X477500D01*
X478553Y483450D01*
X480588Y482905D01*
D02*
G37*
G36*
X655340Y458050D02*
X679340D01*
Y442050D01*
X654287D01*
X652252Y442595D01*
X650428Y443648D01*
X648938Y445138D01*
X647885Y446962D01*
X647340Y448997D01*
Y451103D01*
X647885Y453138D01*
X648938Y454962D01*
X650428Y456452D01*
X652252Y457505D01*
X654287Y458050D01*
X655340Y458050D01*
D02*
G37*
G36*
X480588Y457505D02*
X482412Y456452D01*
X483902Y454962D01*
X484955Y453138D01*
X485500Y451103D01*
Y448997D01*
X484955Y446962D01*
X483902Y445138D01*
X482412Y443648D01*
X480588Y442595D01*
X478553Y442050D01*
X453500D01*
Y458050D01*
X477500D01*
X478553Y458050D01*
X480588Y457505D01*
D02*
G37*
G36*
X655340Y432650D02*
X679340D01*
Y416650D01*
X654287D01*
X652252Y417195D01*
X650428Y418248D01*
X648938Y419738D01*
X647885Y421562D01*
X647340Y423597D01*
Y425703D01*
X647885Y427738D01*
X648938Y429562D01*
X650428Y431052D01*
X652252Y432105D01*
X654287Y432650D01*
X655340Y432650D01*
D02*
G37*
G36*
X480588Y432105D02*
X482412Y431052D01*
X483902Y429562D01*
X484955Y427738D01*
X485500Y425703D01*
Y423597D01*
X484955Y421562D01*
X483902Y419738D01*
X482412Y418248D01*
X480588Y417195D01*
X478553Y416650D01*
X453500D01*
Y432650D01*
X477500D01*
X478553Y432650D01*
X480588Y432105D01*
D02*
G37*
G36*
X655340Y407250D02*
X679340D01*
Y391250D01*
X654287D01*
X652252Y391795D01*
X650428Y392848D01*
X648938Y394338D01*
X647885Y396162D01*
X647340Y398197D01*
Y400303D01*
X647885Y402338D01*
X648938Y404162D01*
X650428Y405652D01*
X652252Y406705D01*
X654287Y407250D01*
X655340Y407250D01*
D02*
G37*
G36*
X480588Y406705D02*
X482412Y405652D01*
X483902Y404162D01*
X484955Y402338D01*
X485500Y400303D01*
Y398197D01*
X484955Y396162D01*
X483902Y394338D01*
X482412Y392848D01*
X480588Y391795D01*
X478553Y391250D01*
X453500D01*
Y407250D01*
X477500D01*
X478553Y407250D01*
X480588Y406705D01*
D02*
G37*
G36*
X655340Y381850D02*
X679340D01*
Y365850D01*
X654287D01*
X652252Y366395D01*
X650428Y367448D01*
X648938Y368938D01*
X647885Y370762D01*
X647340Y372797D01*
Y374903D01*
X647885Y376938D01*
X648938Y378762D01*
X650428Y380252D01*
X652252Y381305D01*
X654287Y381850D01*
X655340Y381850D01*
D02*
G37*
G36*
X480588Y381305D02*
X482412Y380252D01*
X483902Y378762D01*
X484955Y376938D01*
X485500Y374903D01*
Y372797D01*
X484955Y370762D01*
X483902Y368938D01*
X482412Y367448D01*
X480588Y366395D01*
X478553Y365850D01*
X453500D01*
Y381850D01*
X477500D01*
X478553Y381850D01*
X480588Y381305D01*
D02*
G37*
G36*
X655340Y356450D02*
X679340D01*
Y340450D01*
X654287D01*
X652252Y340995D01*
X650428Y342048D01*
X648938Y343538D01*
X647885Y345362D01*
X647340Y347397D01*
Y349503D01*
X647885Y351538D01*
X648938Y353362D01*
X650428Y354852D01*
X652252Y355905D01*
X654287Y356450D01*
X655340Y356450D01*
D02*
G37*
G36*
X480588Y355905D02*
X482412Y354852D01*
X483902Y353362D01*
X484955Y351538D01*
X485500Y349503D01*
Y347397D01*
X484955Y345362D01*
X483902Y343538D01*
X482412Y342048D01*
X480588Y340995D01*
X478553Y340450D01*
X453500D01*
Y356450D01*
X477500D01*
X478553Y356450D01*
X480588Y355905D01*
D02*
G37*
G36*
X655340Y331050D02*
X679340D01*
Y315050D01*
X654287D01*
X652252Y315595D01*
X650428Y316648D01*
X648938Y318138D01*
X647885Y319962D01*
X647340Y321997D01*
Y324103D01*
X647885Y326138D01*
X648938Y327962D01*
X650428Y329452D01*
X652252Y330505D01*
X654287Y331050D01*
X655340Y331050D01*
D02*
G37*
G36*
X480588Y330505D02*
X482412Y329452D01*
X483902Y327962D01*
X484955Y326138D01*
X485500Y324103D01*
Y321997D01*
X484955Y319962D01*
X483902Y318138D01*
X482412Y316648D01*
X480588Y315595D01*
X478553Y315050D01*
X453500D01*
Y331050D01*
X477500D01*
X478553Y331050D01*
X480588Y330505D01*
D02*
G37*
G36*
X594908Y332805D02*
X596732Y331752D01*
X598222Y330262D01*
X599275Y328438D01*
X599820Y326403D01*
Y325350D01*
Y301350D01*
X583820D01*
Y325350D01*
X583820Y326403D01*
X584365Y328438D01*
X585418Y330262D01*
X586908Y331752D01*
X588732Y332805D01*
X590767Y333350D01*
X592873D01*
X594908Y332805D01*
D02*
G37*
G36*
X569508D02*
X571332Y331752D01*
X572822Y330262D01*
X573875Y328438D01*
X574420Y326403D01*
Y325350D01*
Y301350D01*
X558420D01*
Y325350D01*
X558420Y326403D01*
X558965Y328438D01*
X560018Y330262D01*
X561508Y331752D01*
X563332Y332805D01*
X565367Y333350D01*
X567473D01*
X569508Y332805D01*
D02*
G37*
G36*
X544108D02*
X545932Y331752D01*
X547422Y330262D01*
X548475Y328438D01*
X549020Y326403D01*
Y325350D01*
Y301350D01*
X533020D01*
Y325350D01*
X533020Y326403D01*
X533565Y328438D01*
X534618Y330262D01*
X536108Y331752D01*
X537932Y332805D01*
X539967Y333350D01*
X542073D01*
X544108Y332805D01*
D02*
G37*
G36*
X655340Y813650D02*
X679340D01*
Y797650D01*
X654287D01*
X652252Y798195D01*
X650428Y799248D01*
X648938Y800738D01*
X647885Y802562D01*
X647340Y804597D01*
Y806703D01*
X647885Y808738D01*
X648938Y810562D01*
X650428Y812052D01*
X652252Y813105D01*
X654287Y813650D01*
X655340Y813650D01*
D02*
G37*
G36*
X480588Y813105D02*
X482412Y812052D01*
X483902Y810562D01*
X484955Y808738D01*
X485500Y806703D01*
Y804597D01*
X484955Y802562D01*
X483902Y800738D01*
X482412Y799248D01*
X480588Y798195D01*
X478553Y797650D01*
X453500D01*
Y813650D01*
X477500D01*
X478553Y813650D01*
X480588Y813105D01*
D02*
G37*
G36*
X655340Y788250D02*
X679340D01*
Y772250D01*
X654287D01*
X652252Y772795D01*
X650428Y773848D01*
X648938Y775338D01*
X647885Y777162D01*
X647340Y779197D01*
Y781303D01*
X647885Y783338D01*
X648938Y785162D01*
X650428Y786652D01*
X652252Y787705D01*
X654287Y788250D01*
X655340Y788250D01*
D02*
G37*
G36*
X480588Y787705D02*
X482412Y786652D01*
X483902Y785162D01*
X484955Y783338D01*
X485500Y781303D01*
Y779197D01*
X484955Y777162D01*
X483902Y775338D01*
X482412Y773848D01*
X480588Y772795D01*
X478553Y772250D01*
X453500D01*
Y788250D01*
X477500D01*
X478553Y788250D01*
X480588Y787705D01*
D02*
G37*
G36*
X655340Y762850D02*
X679340D01*
Y746850D01*
X654287D01*
X652252Y747395D01*
X650428Y748448D01*
X648938Y749938D01*
X647885Y751762D01*
X647340Y753797D01*
Y755903D01*
X647885Y757938D01*
X648938Y759762D01*
X650428Y761252D01*
X652252Y762305D01*
X654287Y762850D01*
X655340Y762850D01*
D02*
G37*
G36*
X480588Y762305D02*
X482412Y761252D01*
X483902Y759762D01*
X484955Y757938D01*
X485500Y755903D01*
Y753797D01*
X484955Y751762D01*
X483902Y749938D01*
X482412Y748448D01*
X480588Y747395D01*
X478553Y746850D01*
X453500D01*
Y762850D01*
X477500D01*
X478553Y762850D01*
X480588Y762305D01*
D02*
G37*
G36*
X655340Y737450D02*
X679340D01*
Y721450D01*
X654287D01*
X652252Y721995D01*
X650428Y723048D01*
X648938Y724538D01*
X647885Y726362D01*
X647340Y728397D01*
Y730503D01*
X647885Y732538D01*
X648938Y734362D01*
X650428Y735852D01*
X652252Y736905D01*
X654287Y737450D01*
X655340Y737450D01*
D02*
G37*
G36*
X480588Y736905D02*
X482412Y735852D01*
X483902Y734362D01*
X484955Y732538D01*
X485500Y730503D01*
Y728397D01*
X484955Y726362D01*
X483902Y724538D01*
X482412Y723048D01*
X480588Y721995D01*
X478553Y721450D01*
X453500D01*
Y737450D01*
X477500D01*
X478553Y737450D01*
X480588Y736905D01*
D02*
G37*
G36*
X655340Y712050D02*
X679340D01*
Y696050D01*
X654287D01*
X652252Y696595D01*
X650428Y697648D01*
X648938Y699138D01*
X647885Y700962D01*
X647340Y702997D01*
Y705103D01*
X647885Y707138D01*
X648938Y708962D01*
X650428Y710452D01*
X652252Y711505D01*
X654287Y712050D01*
X655340Y712050D01*
D02*
G37*
G36*
X480588Y711505D02*
X482412Y710452D01*
X483902Y708962D01*
X484955Y707138D01*
X485500Y705103D01*
Y702997D01*
X484955Y700962D01*
X483902Y699138D01*
X482412Y697648D01*
X480588Y696595D01*
X478553Y696050D01*
X453500D01*
Y712050D01*
X477500D01*
X478553Y712050D01*
X480588Y711505D01*
D02*
G37*
G36*
X655340Y686650D02*
X679340D01*
Y670650D01*
X654287D01*
X652252Y671195D01*
X650428Y672248D01*
X648938Y673738D01*
X647885Y675562D01*
X647340Y677597D01*
Y679703D01*
X647885Y681738D01*
X648938Y683562D01*
X650428Y685052D01*
X652252Y686105D01*
X654287Y686650D01*
X655340Y686650D01*
D02*
G37*
G36*
X480588Y686105D02*
X482412Y685052D01*
X483902Y683562D01*
X484955Y681738D01*
X485500Y679703D01*
Y677597D01*
X484955Y675562D01*
X483902Y673738D01*
X482412Y672248D01*
X480588Y671195D01*
X478553Y670650D01*
X453500D01*
Y686650D01*
X477500D01*
X478553Y686650D01*
X480588Y686105D01*
D02*
G37*
G36*
X655340Y661250D02*
X679340D01*
Y645250D01*
X654287D01*
X652252Y645795D01*
X650428Y646848D01*
X648938Y648338D01*
X647885Y650162D01*
X647340Y652197D01*
Y654303D01*
X647885Y656338D01*
X648938Y658162D01*
X650428Y659652D01*
X652252Y660705D01*
X654287Y661250D01*
X655340Y661250D01*
D02*
G37*
G36*
X480588Y660705D02*
X482412Y659652D01*
X483902Y658162D01*
X484955Y656338D01*
X485500Y654303D01*
Y652197D01*
X484955Y650162D01*
X483902Y648338D01*
X482412Y646848D01*
X480588Y645795D01*
X478553Y645250D01*
X453500D01*
Y661250D01*
X477500D01*
X478553Y661250D01*
X480588Y660705D01*
D02*
G37*
G36*
X655340Y635850D02*
X679340D01*
Y619850D01*
X654287D01*
X652252Y620395D01*
X650428Y621448D01*
X648938Y622938D01*
X647885Y624762D01*
X647340Y626797D01*
Y628903D01*
X647885Y630938D01*
X648938Y632762D01*
X650428Y634252D01*
X652252Y635305D01*
X654287Y635850D01*
X655340Y635850D01*
D02*
G37*
G36*
X480588Y635305D02*
X482412Y634252D01*
X483902Y632762D01*
X484955Y630938D01*
X485500Y628903D01*
Y626797D01*
X484955Y624762D01*
X483902Y622938D01*
X482412Y621448D01*
X480588Y620395D01*
X478553Y619850D01*
X453500D01*
Y635850D01*
X477500D01*
X478553Y635850D01*
X480588Y635305D01*
D02*
G37*
G36*
X655340Y610450D02*
X679340D01*
Y594450D01*
X654287D01*
X652252Y594995D01*
X650428Y596048D01*
X648938Y597538D01*
X647885Y599362D01*
X647340Y601397D01*
Y603503D01*
X647885Y605538D01*
X648938Y607362D01*
X650428Y608852D01*
X652252Y609905D01*
X654287Y610450D01*
X655340Y610450D01*
D02*
G37*
G36*
X480588Y609905D02*
X482412Y608852D01*
X483902Y607362D01*
X484955Y605538D01*
X485500Y603503D01*
Y601397D01*
X484955Y599362D01*
X483902Y597538D01*
X482412Y596048D01*
X480588Y594995D01*
X478553Y594450D01*
X453500D01*
Y610450D01*
X477500D01*
X478553Y610450D01*
X480588Y609905D01*
D02*
G37*
G36*
X655340Y585050D02*
X679340D01*
Y569050D01*
X654287D01*
X652252Y569595D01*
X650428Y570648D01*
X648938Y572138D01*
X647885Y573962D01*
X647340Y575997D01*
Y578103D01*
X647885Y580138D01*
X648938Y581962D01*
X650428Y583452D01*
X652252Y584505D01*
X654287Y585050D01*
X655340Y585050D01*
D02*
G37*
G36*
X480588Y584505D02*
X482412Y583452D01*
X483902Y581962D01*
X484955Y580138D01*
X485500Y578103D01*
Y575997D01*
X484955Y573962D01*
X483902Y572138D01*
X482412Y570648D01*
X480588Y569595D01*
X478553Y569050D01*
X453500D01*
Y585050D01*
X477500D01*
X478553Y585050D01*
X480588Y584505D01*
D02*
G37*
G36*
X655340Y559650D02*
X679340D01*
Y543650D01*
X654287D01*
X652252Y544195D01*
X650428Y545248D01*
X648938Y546738D01*
X647885Y548562D01*
X647340Y550597D01*
Y552703D01*
X647885Y554738D01*
X648938Y556562D01*
X650428Y558052D01*
X652252Y559105D01*
X654287Y559650D01*
X655340Y559650D01*
D02*
G37*
G36*
X480588Y559105D02*
X482412Y558052D01*
X483902Y556562D01*
X484955Y554738D01*
X485500Y552703D01*
Y550597D01*
X484955Y548562D01*
X483902Y546738D01*
X482412Y545248D01*
X480588Y544195D01*
X478553Y543650D01*
X453500D01*
Y559650D01*
X477500D01*
X478553Y559650D01*
X480588Y559105D01*
D02*
G37*
D17*
X773430Y619760D02*
D03*
Y607060D02*
D03*
Y594360D02*
D03*
Y581660D02*
D03*
Y568960D02*
D03*
Y556260D02*
D03*
Y543560D02*
D03*
Y530860D02*
D03*
X821690D02*
D03*
Y543560D02*
D03*
Y556260D02*
D03*
Y568960D02*
D03*
Y581660D02*
D03*
Y594360D02*
D03*
Y607060D02*
D03*
Y619760D02*
D03*
D18*
X467020Y729290D02*
D03*
X665820Y627690D02*
D03*
Y754690D02*
D03*
Y500690D02*
D03*
Y373690D02*
D03*
X467020Y627690D02*
D03*
Y373690D02*
D03*
Y500690D02*
D03*
X665820Y805490D02*
D03*
X467020Y780090D02*
D03*
Y805490D02*
D03*
Y322890D02*
D03*
Y348290D02*
D03*
Y399090D02*
D03*
Y424490D02*
D03*
Y449890D02*
D03*
Y475290D02*
D03*
Y526090D02*
D03*
Y551490D02*
D03*
Y576890D02*
D03*
Y602290D02*
D03*
Y653090D02*
D03*
Y678490D02*
D03*
Y703890D02*
D03*
X665820Y780090D02*
D03*
Y729290D02*
D03*
Y703890D02*
D03*
Y678490D02*
D03*
Y653090D02*
D03*
Y602290D02*
D03*
Y576890D02*
D03*
Y551490D02*
D03*
Y526090D02*
D03*
Y475290D02*
D03*
Y449890D02*
D03*
Y424490D02*
D03*
Y399090D02*
D03*
Y348290D02*
D03*
Y322890D02*
D03*
D19*
X866280Y799670D02*
D03*
X947280Y780670D02*
D03*
X740550Y799670D02*
D03*
X821550Y780670D02*
D03*
D20*
X720090Y608170D02*
D03*
Y454820D02*
D03*
Y522130D02*
D03*
Y588170D02*
D03*
Y542130D02*
D03*
Y474820D02*
D03*
X876300Y589440D02*
D03*
Y609440D02*
D03*
Y542130D02*
D03*
Y522130D02*
D03*
X773430Y454980D02*
D03*
Y474980D02*
D03*
D21*
X836770Y473710D02*
D03*
X816610Y425450D02*
D03*
X836610D02*
D03*
X816770Y473710D02*
D03*
D22*
X469520Y754690D02*
D03*
D23*
X914280Y665670D02*
D03*
X788550D02*
D03*
D24*
X866280Y706670D02*
D03*
X740550D02*
D03*
D25*
X947280Y807670D02*
D03*
X821550D02*
D03*
D26*
X591820Y314690D02*
D03*
X566420D02*
D03*
X541020D02*
D03*
D27*
X556519Y807262D02*
D03*
X576519D02*
D03*
X566519Y774262D02*
D03*
X541519Y739262D02*
D03*
Y714262D02*
D03*
Y689262D02*
D03*
M02*
