G04*
G04 #@! TF.GenerationSoftware,Altium Limited,Altium Designer,25.8.1 (18)*
G04*
G04 Layer_Physical_Order=1*
G04 Layer_Color=255*
%FSLAX44Y44*%
%MOMM*%
G71*
G04*
G04 #@! TF.SameCoordinates,71B8C197-EE49-42B5-B996-358C315723FC*
G04*
G04*
G04 #@! TF.FilePolarity,Positive*
G04*
G01*
G75*
%ADD17R,1.9812X0.5588*%
%ADD18R,2.5000X1.0000*%
%ADD19R,2.1000X2.2000*%
%ADD20R,1.4000X1.1000*%
%ADD21R,1.1000X1.4000*%
G04:AMPARAMS|DCode=22|XSize=2.5mm|YSize=1mm|CornerRadius=0.125mm|HoleSize=0mm|Usage=FLASHONLY|Rotation=0.000|XOffset=0mm|YOffset=0mm|HoleType=Round|Shape=RoundedRectangle|*
%AMROUNDEDRECTD22*
21,1,2.5000,0.7500,0,0,0.0*
21,1,2.2500,1.0000,0,0,0.0*
1,1,0.2500,1.1250,-0.3750*
1,1,0.2500,-1.1250,-0.3750*
1,1,0.2500,-1.1250,0.3750*
1,1,0.2500,1.1250,0.3750*
%
%ADD22ROUNDEDRECTD22*%
%ADD23R,2.7000X2.6000*%
%ADD24R,2.1000X2.7000*%
%ADD25R,2.1000X2.0000*%
%ADD26R,1.0000X2.5000*%
G04:AMPARAMS|DCode=27|XSize=1.5mm|YSize=1.5mm|CornerRadius=0.225mm|HoleSize=0mm|Usage=FLASHONLY|Rotation=0.000|XOffset=0mm|YOffset=0mm|HoleType=Round|Shape=RoundedRectangle|*
%AMROUNDEDRECTD27*
21,1,1.5000,1.0500,0,0,0.0*
21,1,1.0500,1.5000,0,0,0.0*
1,1,0.4500,0.5250,-0.5250*
1,1,0.4500,-0.5250,-0.5250*
1,1,0.4500,-0.5250,0.5250*
1,1,0.4500,0.5250,0.5250*
%
%ADD27ROUNDEDRECTD27*%
%ADD39C,1.5700*%
%ADD40R,1.5700X1.5700*%
%ADD45C,0.6000*%
%ADD46C,5.0800*%
%ADD47R,1.5500X1.5500*%
%ADD48C,1.5500*%
%ADD49C,1.2700*%
G36*
X655340Y813650D02*
X679340D01*
Y797650D01*
X654287D01*
X652252Y798195D01*
X650428Y799248D01*
X648938Y800738D01*
X647885Y802562D01*
X647340Y804597D01*
Y806703D01*
X647885Y808738D01*
X648938Y810562D01*
X650428Y812052D01*
X652252Y813105D01*
X654287Y813650D01*
X655340Y813650D01*
D02*
G37*
G36*
X480588Y813105D02*
X482412Y812052D01*
X483902Y810562D01*
X484955Y808738D01*
X485500Y806703D01*
Y804597D01*
X484955Y802562D01*
X483902Y800738D01*
X482412Y799248D01*
X480588Y798195D01*
X478553Y797650D01*
X453500D01*
Y813650D01*
X477500D01*
X478553Y813650D01*
X480588Y813105D01*
D02*
G37*
G36*
X655340Y788250D02*
X679340D01*
Y772250D01*
X654287D01*
X652252Y772795D01*
X650428Y773848D01*
X648938Y775338D01*
X647885Y777162D01*
X647340Y779197D01*
Y781303D01*
X647885Y783338D01*
X648938Y785162D01*
X650428Y786652D01*
X652252Y787705D01*
X654287Y788250D01*
X655340Y788250D01*
D02*
G37*
G36*
X480588Y787705D02*
X482412Y786652D01*
X483902Y785162D01*
X484955Y783338D01*
X485500Y781303D01*
Y779197D01*
X484955Y777162D01*
X483902Y775338D01*
X482412Y773848D01*
X480588Y772795D01*
X478553Y772250D01*
X453500D01*
Y788250D01*
X477500D01*
X478553Y788250D01*
X480588Y787705D01*
D02*
G37*
G36*
X655340Y762850D02*
X679340D01*
Y746850D01*
X654287D01*
X652252Y747395D01*
X650428Y748448D01*
X648938Y749938D01*
X647885Y751762D01*
X647340Y753797D01*
Y755903D01*
X647885Y757938D01*
X648938Y759762D01*
X650428Y761252D01*
X652252Y762305D01*
X654287Y762850D01*
X655340Y762850D01*
D02*
G37*
G36*
X480588Y762305D02*
X482412Y761252D01*
X483902Y759762D01*
X484955Y757938D01*
X485500Y755903D01*
Y753797D01*
X484955Y751762D01*
X483902Y749938D01*
X482412Y748448D01*
X480588Y747395D01*
X478553Y746850D01*
X453500D01*
Y762850D01*
X477500D01*
X478553Y762850D01*
X480588Y762305D01*
D02*
G37*
G36*
X655340Y737450D02*
X679340D01*
Y721450D01*
X654287D01*
X652252Y721995D01*
X650428Y723048D01*
X648938Y724538D01*
X647885Y726362D01*
X647340Y728397D01*
Y730503D01*
X647885Y732538D01*
X648938Y734362D01*
X650428Y735852D01*
X652252Y736905D01*
X654287Y737450D01*
X655340Y737450D01*
D02*
G37*
G36*
X480588Y736905D02*
X482412Y735852D01*
X483902Y734362D01*
X484955Y732538D01*
X485500Y730503D01*
Y728397D01*
X484955Y726362D01*
X483902Y724538D01*
X482412Y723048D01*
X480588Y721995D01*
X478553Y721450D01*
X453500D01*
Y737450D01*
X477500D01*
X478553Y737450D01*
X480588Y736905D01*
D02*
G37*
G36*
X655340Y712050D02*
X679340D01*
Y696050D01*
X654287D01*
X652252Y696595D01*
X650428Y697648D01*
X648938Y699138D01*
X647885Y700962D01*
X647340Y702997D01*
Y705103D01*
X647885Y707138D01*
X648938Y708962D01*
X650428Y710452D01*
X652252Y711505D01*
X654287Y712050D01*
X655340Y712050D01*
D02*
G37*
G36*
X480588Y711505D02*
X482412Y710452D01*
X483902Y708962D01*
X484955Y707138D01*
X485500Y705103D01*
Y702997D01*
X484955Y700962D01*
X483902Y699138D01*
X482412Y697648D01*
X480588Y696595D01*
X478553Y696050D01*
X453500D01*
Y712050D01*
X477500D01*
X478553Y712050D01*
X480588Y711505D01*
D02*
G37*
G36*
X655340Y686650D02*
X679340D01*
Y670650D01*
X654287D01*
X652252Y671195D01*
X650428Y672248D01*
X648938Y673738D01*
X647885Y675562D01*
X647340Y677597D01*
Y679703D01*
X647885Y681738D01*
X648938Y683562D01*
X650428Y685052D01*
X652252Y686105D01*
X654287Y686650D01*
X655340Y686650D01*
D02*
G37*
G36*
X480588Y686105D02*
X482412Y685052D01*
X483902Y683562D01*
X484955Y681738D01*
X485500Y679703D01*
Y677597D01*
X484955Y675562D01*
X483902Y673738D01*
X482412Y672248D01*
X480588Y671195D01*
X478553Y670650D01*
X453500D01*
Y686650D01*
X477500D01*
X478553Y686650D01*
X480588Y686105D01*
D02*
G37*
G36*
X655340Y661250D02*
X679340D01*
Y645250D01*
X654287D01*
X652252Y645795D01*
X650428Y646848D01*
X648938Y648338D01*
X647885Y650162D01*
X647340Y652197D01*
Y654303D01*
X647885Y656338D01*
X648938Y658162D01*
X650428Y659652D01*
X652252Y660705D01*
X654287Y661250D01*
X655340Y661250D01*
D02*
G37*
G36*
X480588Y660705D02*
X482412Y659652D01*
X483902Y658162D01*
X484955Y656338D01*
X485500Y654303D01*
Y652197D01*
X484955Y650162D01*
X483902Y648338D01*
X482412Y646848D01*
X480588Y645795D01*
X478553Y645250D01*
X453500D01*
Y661250D01*
X477500D01*
X478553Y661250D01*
X480588Y660705D01*
D02*
G37*
G36*
X655340Y635850D02*
X679340D01*
Y619850D01*
X654287D01*
X652252Y620395D01*
X650428Y621448D01*
X648938Y622938D01*
X647885Y624762D01*
X647340Y626797D01*
Y628903D01*
X647885Y630938D01*
X648938Y632762D01*
X650428Y634252D01*
X652252Y635305D01*
X654287Y635850D01*
X655340Y635850D01*
D02*
G37*
G36*
X480588Y635305D02*
X482412Y634252D01*
X483902Y632762D01*
X484955Y630938D01*
X485500Y628903D01*
Y626797D01*
X484955Y624762D01*
X483902Y622938D01*
X482412Y621448D01*
X480588Y620395D01*
X478553Y619850D01*
X453500D01*
Y635850D01*
X477500D01*
X478553Y635850D01*
X480588Y635305D01*
D02*
G37*
G36*
X961097Y821670D02*
X932780D01*
Y793670D01*
Y779730D01*
X929280D01*
X927453Y779490D01*
X925750Y778784D01*
X924288Y777663D01*
X870795Y724170D01*
X851780D01*
Y689170D01*
X869240D01*
Y620355D01*
X865586Y619376D01*
X862357Y621729D01*
X861815Y623755D01*
X860452Y626115D01*
X858525Y628042D01*
X856165Y629405D01*
X853533Y630110D01*
X850807D01*
X848175Y629405D01*
X845815Y628042D01*
X844593Y626820D01*
X821690D01*
X819863Y626580D01*
X819800Y626554D01*
X811844D01*
Y642580D01*
X844042Y674778D01*
X845164Y676240D01*
X845870Y677943D01*
X846110Y679771D01*
Y769016D01*
X861765Y784670D01*
X863280D01*
Y796670D01*
X851780D01*
Y794655D01*
X839745Y782620D01*
X836050Y784151D01*
Y793670D01*
Y821670D01*
X807050D01*
Y793670D01*
Y775655D01*
X783375Y751980D01*
X775800D01*
X773973Y751740D01*
X772270Y751034D01*
X770808Y749912D01*
X745065Y724170D01*
X730110D01*
Y733046D01*
X738042Y740978D01*
X739165Y742440D01*
X739870Y744143D01*
X740110Y745970D01*
Y784670D01*
X755050D01*
Y814670D01*
X726050D01*
Y792629D01*
X725990Y792170D01*
Y748895D01*
X718058Y740963D01*
X716936Y739501D01*
X716230Y737798D01*
X715990Y735970D01*
Y642970D01*
X712294Y641439D01*
X698546Y655188D01*
Y791135D01*
X698305Y792962D01*
X697600Y794665D01*
X696478Y796127D01*
X683418Y809186D01*
Y813650D01*
X683108Y815211D01*
X682224Y816534D01*
X680901Y817418D01*
X679340Y817728D01*
X661041D01*
X660747Y817954D01*
X659044Y818660D01*
X657216Y818900D01*
X615703D01*
X613875Y818660D01*
X612173Y817954D01*
X610710Y816833D01*
X593418Y799540D01*
X591728D01*
X588142Y802012D01*
Y812512D01*
X587657Y814951D01*
X586275Y817018D01*
X584208Y818400D01*
X581769Y818885D01*
X571269D01*
X568831Y818400D01*
X566763Y817018D01*
X566275D01*
X564208Y818400D01*
X561769Y818885D01*
X551269D01*
X548831Y818400D01*
X546763Y817018D01*
X545382Y814951D01*
X544897Y812512D01*
Y810514D01*
X541201Y808984D01*
X518192Y831992D01*
X516730Y833114D01*
X515027Y833820D01*
X513200Y834060D01*
X456160D01*
X454333Y833820D01*
X452630Y833114D01*
X451168Y831992D01*
X426125Y806950D01*
X422617Y809099D01*
X423646Y812265D01*
X424370Y816836D01*
Y821464D01*
X423646Y826034D01*
X422216Y830436D01*
X420115Y834559D01*
X417395Y838303D01*
X414123Y841575D01*
X412441Y842797D01*
X413741Y846797D01*
X961097D01*
Y821670D01*
D02*
G37*
G36*
X655340Y610450D02*
X679340D01*
Y594450D01*
X654287D01*
X652252Y594995D01*
X650428Y596048D01*
X648938Y597538D01*
X647885Y599362D01*
X647340Y601397D01*
Y603503D01*
X647885Y605538D01*
X648938Y607362D01*
X650428Y608852D01*
X652252Y609905D01*
X654287Y610450D01*
X655340Y610450D01*
D02*
G37*
G36*
X480588Y609905D02*
X482412Y608852D01*
X483902Y607362D01*
X484955Y605538D01*
X485500Y603503D01*
Y601397D01*
X484955Y599362D01*
X483902Y597538D01*
X482412Y596048D01*
X480588Y594995D01*
X478553Y594450D01*
X453500D01*
Y610450D01*
X477500D01*
X478553Y610450D01*
X480588Y609905D01*
D02*
G37*
G36*
X655340Y585050D02*
X679340D01*
Y569050D01*
X654287D01*
X652252Y569595D01*
X650428Y570648D01*
X648938Y572138D01*
X647885Y573962D01*
X647340Y575997D01*
Y578103D01*
X647885Y580138D01*
X648938Y581962D01*
X650428Y583452D01*
X652252Y584505D01*
X654287Y585050D01*
X655340Y585050D01*
D02*
G37*
G36*
X480588Y584505D02*
X482412Y583452D01*
X483902Y581962D01*
X484955Y580138D01*
X485500Y578103D01*
Y575997D01*
X484955Y573962D01*
X483902Y572138D01*
X482412Y570648D01*
X480588Y569595D01*
X478553Y569050D01*
X453500D01*
Y585050D01*
X477500D01*
X478553Y585050D01*
X480588Y584505D01*
D02*
G37*
G36*
X655340Y559650D02*
X679340D01*
Y543650D01*
X654287D01*
X652252Y544195D01*
X650428Y545248D01*
X648938Y546738D01*
X647885Y548562D01*
X647340Y550597D01*
Y552703D01*
X647885Y554738D01*
X648938Y556562D01*
X650428Y558052D01*
X652252Y559105D01*
X654287Y559650D01*
X655340Y559650D01*
D02*
G37*
G36*
X480588Y559105D02*
X482412Y558052D01*
X483902Y556562D01*
X484955Y554738D01*
X485500Y552703D01*
Y550597D01*
X484955Y548562D01*
X483902Y546738D01*
X482412Y545248D01*
X480588Y544195D01*
X478553Y543650D01*
X453500D01*
Y559650D01*
X477500D01*
X478553Y559650D01*
X480588Y559105D01*
D02*
G37*
G36*
X655340Y534250D02*
X679340D01*
Y518250D01*
X654287D01*
X652252Y518795D01*
X650428Y519848D01*
X648938Y521338D01*
X647885Y523162D01*
X647340Y525197D01*
Y527303D01*
X647885Y529338D01*
X648938Y531162D01*
X650428Y532652D01*
X652252Y533705D01*
X654287Y534250D01*
X655340Y534250D01*
D02*
G37*
G36*
X480588Y533705D02*
X482412Y532652D01*
X483902Y531162D01*
X484955Y529338D01*
X485500Y527303D01*
Y525197D01*
X484955Y523162D01*
X483902Y521338D01*
X482412Y519848D01*
X480588Y518795D01*
X478553Y518250D01*
X453500D01*
Y534250D01*
X477500D01*
X478553Y534250D01*
X480588Y533705D01*
D02*
G37*
G36*
X655340Y508850D02*
X679340D01*
Y492850D01*
X654287D01*
X652252Y493395D01*
X650428Y494448D01*
X648938Y495938D01*
X647885Y497762D01*
X647340Y499797D01*
Y501903D01*
X647885Y503938D01*
X648938Y505762D01*
X650428Y507252D01*
X652252Y508305D01*
X654287Y508850D01*
X655340Y508850D01*
D02*
G37*
G36*
X480588Y508305D02*
X482412Y507252D01*
X483902Y505762D01*
X484955Y503938D01*
X485500Y501903D01*
Y499797D01*
X484955Y497762D01*
X483902Y495938D01*
X482412Y494448D01*
X480588Y493395D01*
X478553Y492850D01*
X453500D01*
Y508850D01*
X477500D01*
X478553Y508850D01*
X480588Y508305D01*
D02*
G37*
G36*
X655340Y483450D02*
X679340D01*
Y467450D01*
X654287D01*
X652252Y467995D01*
X650428Y469048D01*
X648938Y470538D01*
X647885Y472362D01*
X647340Y474397D01*
Y476503D01*
X647885Y478538D01*
X648938Y480362D01*
X650428Y481852D01*
X652252Y482905D01*
X654287Y483450D01*
X655340Y483450D01*
D02*
G37*
G36*
X480588Y482905D02*
X482412Y481852D01*
X483902Y480362D01*
X484955Y478538D01*
X485500Y476503D01*
Y474397D01*
X484955Y472362D01*
X483902Y470538D01*
X482412Y469048D01*
X480588Y467995D01*
X478553Y467450D01*
X453500D01*
Y483450D01*
X477500D01*
X478553Y483450D01*
X480588Y482905D01*
D02*
G37*
G36*
X655340Y458050D02*
X679340D01*
Y442050D01*
X654287D01*
X652252Y442595D01*
X650428Y443648D01*
X648938Y445138D01*
X647885Y446962D01*
X647340Y448997D01*
Y451103D01*
X647885Y453138D01*
X648938Y454962D01*
X650428Y456452D01*
X652252Y457505D01*
X654287Y458050D01*
X655340Y458050D01*
D02*
G37*
G36*
X480588Y457505D02*
X482412Y456452D01*
X483902Y454962D01*
X484955Y453138D01*
X485500Y451103D01*
Y448997D01*
X484955Y446962D01*
X483902Y445138D01*
X482412Y443648D01*
X480588Y442595D01*
X478553Y442050D01*
X453500D01*
Y458050D01*
X477500D01*
X478553Y458050D01*
X480588Y457505D01*
D02*
G37*
G36*
X392010Y555705D02*
Y546950D01*
X395629D01*
X396701Y542950D01*
X396584Y542882D01*
X394378Y540676D01*
X392818Y537974D01*
X392010Y534960D01*
Y531840D01*
X392818Y528826D01*
X394378Y526124D01*
X396584Y523918D01*
X398309Y522922D01*
X398705Y521351D01*
Y520049D01*
X398309Y518478D01*
X396584Y517482D01*
X394378Y515276D01*
X392818Y512574D01*
X392396Y511000D01*
X403860D01*
X416845D01*
X433204Y527359D01*
X436900Y525829D01*
Y491334D01*
X405725Y460160D01*
X392010D01*
Y436460D01*
X395629D01*
X396701Y432460D01*
X396584Y432392D01*
X394378Y430186D01*
X392818Y427484D01*
X392420Y426000D01*
X388437Y424567D01*
X386070Y426521D01*
Y555887D01*
X388063Y557466D01*
X392010Y555705D01*
D02*
G37*
G36*
X655340Y432650D02*
X679340D01*
Y416650D01*
X654287D01*
X652252Y417195D01*
X650428Y418248D01*
X648938Y419738D01*
X647885Y421562D01*
X647340Y423597D01*
Y425703D01*
X647885Y427738D01*
X648938Y429562D01*
X650428Y431052D01*
X652252Y432105D01*
X654287Y432650D01*
X655340Y432650D01*
D02*
G37*
G36*
X480588Y432105D02*
X482412Y431052D01*
X483902Y429562D01*
X484955Y427738D01*
X485500Y425703D01*
Y423597D01*
X484955Y421562D01*
X483902Y419738D01*
X482412Y418248D01*
X480588Y417195D01*
X478553Y416650D01*
X453500D01*
Y432650D01*
X477500D01*
X478553Y432650D01*
X480588Y432105D01*
D02*
G37*
G36*
X655340Y407250D02*
X679340D01*
Y391250D01*
X654287D01*
X652252Y391795D01*
X650428Y392848D01*
X648938Y394338D01*
X647885Y396162D01*
X647340Y398197D01*
Y400303D01*
X647885Y402338D01*
X648938Y404162D01*
X650428Y405652D01*
X652252Y406705D01*
X654287Y407250D01*
X655340Y407250D01*
D02*
G37*
G36*
X480588Y406705D02*
X482412Y405652D01*
X483902Y404162D01*
X484955Y402338D01*
X485500Y400303D01*
Y398197D01*
X484955Y396162D01*
X483902Y394338D01*
X482412Y392848D01*
X480588Y391795D01*
X478553Y391250D01*
X453500D01*
Y407250D01*
X477500D01*
X478553Y407250D01*
X480588Y406705D01*
D02*
G37*
G36*
X655340Y381850D02*
X679340D01*
Y365850D01*
X654287D01*
X652252Y366395D01*
X650428Y367448D01*
X648938Y368938D01*
X647885Y370762D01*
X647340Y372797D01*
Y374903D01*
X647885Y376938D01*
X648938Y378762D01*
X650428Y380252D01*
X652252Y381305D01*
X654287Y381850D01*
X655340Y381850D01*
D02*
G37*
G36*
X480588Y381305D02*
X482412Y380252D01*
X483902Y378762D01*
X484955Y376938D01*
X485500Y374903D01*
Y372797D01*
X484955Y370762D01*
X483902Y368938D01*
X482412Y367448D01*
X480588Y366395D01*
X478553Y365850D01*
X453500D01*
Y381850D01*
X477500D01*
X478553Y381850D01*
X480588Y381305D01*
D02*
G37*
G36*
X655340Y356450D02*
X679340D01*
Y340450D01*
X654287D01*
X652252Y340995D01*
X650428Y342048D01*
X648938Y343538D01*
X647885Y345362D01*
X647340Y347397D01*
Y349503D01*
X647885Y351538D01*
X648938Y353362D01*
X650428Y354852D01*
X652252Y355905D01*
X654287Y356450D01*
X655340Y356450D01*
D02*
G37*
G36*
X480588Y355905D02*
X482412Y354852D01*
X483902Y353362D01*
X484955Y351538D01*
X485500Y349503D01*
Y347397D01*
X484955Y345362D01*
X483902Y343538D01*
X482412Y342048D01*
X480588Y340995D01*
X478553Y340450D01*
X453500D01*
Y356450D01*
X477500D01*
X478553Y356450D01*
X480588Y355905D01*
D02*
G37*
G36*
X655340Y331050D02*
X679340D01*
Y315050D01*
X654287D01*
X652252Y315595D01*
X650428Y316648D01*
X648938Y318138D01*
X647885Y319962D01*
X647340Y321997D01*
Y324103D01*
X647885Y326138D01*
X648938Y327962D01*
X650428Y329452D01*
X652252Y330505D01*
X654287Y331050D01*
X655340Y331050D01*
D02*
G37*
G36*
X480588Y330505D02*
X482412Y329452D01*
X483902Y327962D01*
X484955Y326138D01*
X485500Y324103D01*
Y321997D01*
X484955Y319962D01*
X483902Y318138D01*
X482412Y316648D01*
X480588Y315595D01*
X478553Y315050D01*
X453500D01*
Y331050D01*
X477500D01*
X478553Y331050D01*
X480588Y330505D01*
D02*
G37*
G36*
X372545Y799997D02*
X375817Y796725D01*
X379561Y794005D01*
X383684Y791904D01*
X388086Y790474D01*
X392656Y789750D01*
X397284D01*
X401855Y790474D01*
X405021Y791503D01*
X407170Y787995D01*
X384018Y764843D01*
X382896Y763380D01*
X382190Y761677D01*
X381950Y759850D01*
Y658540D01*
X382190Y656713D01*
X382896Y655010D01*
X384018Y653548D01*
X392032Y645533D01*
X392010Y645450D01*
Y642330D01*
X392818Y639316D01*
X394378Y636614D01*
X396584Y634408D01*
X398309Y633412D01*
X398705Y631841D01*
Y630539D01*
X398309Y628968D01*
X396584Y627972D01*
X394378Y625766D01*
X392818Y623064D01*
X392396Y621490D01*
X403860D01*
Y615490D01*
X392396D01*
X392818Y613916D01*
X394378Y611214D01*
X396584Y609008D01*
X396800Y608883D01*
Y587324D01*
X374018Y564542D01*
X372896Y563080D01*
X372190Y561377D01*
X371950Y559549D01*
Y422360D01*
X372190Y420533D01*
X372896Y418830D01*
X374018Y417368D01*
X390875Y400510D01*
X403860D01*
X415324D01*
X414902Y402084D01*
X413342Y404786D01*
X411136Y406992D01*
X409411Y407988D01*
X409015Y409559D01*
Y410861D01*
X409411Y412432D01*
X411136Y413428D01*
X413342Y415634D01*
X414902Y418336D01*
X415710Y421350D01*
Y424470D01*
X414902Y427484D01*
X413342Y430186D01*
X411136Y432392D01*
X411019Y432460D01*
X412091Y436460D01*
X415710D01*
Y450175D01*
X445422Y479887D01*
X449422Y478230D01*
Y467450D01*
X449732Y465889D01*
X450241Y465128D01*
X450616Y464397D01*
Y461104D01*
X450241Y460372D01*
X449732Y459611D01*
X449422Y458050D01*
Y442050D01*
X449732Y440489D01*
X450241Y439728D01*
X450616Y438997D01*
Y435704D01*
X450241Y434972D01*
X449732Y434211D01*
X449422Y432650D01*
Y416650D01*
X449732Y415089D01*
X450241Y414328D01*
X450616Y413596D01*
Y410303D01*
X450241Y409572D01*
X449732Y408811D01*
X449422Y407250D01*
Y391250D01*
X449732Y389689D01*
X450241Y388928D01*
X450616Y388196D01*
Y384903D01*
X450241Y384172D01*
X449732Y383411D01*
X449422Y381850D01*
Y380750D01*
X430605D01*
X416845Y394510D01*
X406860D01*
Y384525D01*
X422687Y368698D01*
X424150Y367575D01*
X425853Y366870D01*
X427680Y366630D01*
X449422D01*
Y365850D01*
X449732Y364289D01*
X450170Y363634D01*
X450616Y362772D01*
Y359527D01*
X450170Y358666D01*
X449732Y358011D01*
X449422Y356450D01*
Y340450D01*
X449732Y338889D01*
X450170Y338234D01*
X450616Y337373D01*
Y334127D01*
X450170Y333266D01*
X449732Y332611D01*
X449422Y331050D01*
Y315050D01*
X449732Y313489D01*
X450616Y312166D01*
X451939Y311282D01*
X453500Y310972D01*
X478553D01*
X479076Y311076D01*
X479609Y311111D01*
X481643Y311656D01*
X482122Y311892D01*
X482627Y312063D01*
X484451Y313116D01*
X484852Y313468D01*
X485296Y313764D01*
X486785Y315254D01*
X487082Y315698D01*
X487434Y316099D01*
X488487Y317923D01*
X488658Y318428D01*
X488894Y318906D01*
X489439Y320941D01*
X489474Y321474D01*
X489578Y321997D01*
Y324103D01*
X489474Y324627D01*
X489439Y325159D01*
X488894Y327193D01*
X488658Y327672D01*
X488487Y328177D01*
X487434Y330001D01*
X487082Y330402D01*
X486785Y330846D01*
X485296Y332335D01*
X484852Y332632D01*
X484451Y332984D01*
X483520Y333521D01*
X483471Y333654D01*
X483051Y335547D01*
Y335953D01*
X483471Y337846D01*
X483520Y337979D01*
X484451Y338516D01*
X484852Y338868D01*
X485296Y339165D01*
X486785Y340654D01*
X487082Y341098D01*
X487434Y341499D01*
X488487Y343323D01*
X488658Y343828D01*
X488894Y344306D01*
X489439Y346341D01*
X489474Y346874D01*
X489578Y347397D01*
Y349503D01*
X489474Y350027D01*
X489439Y350559D01*
X488894Y352593D01*
X488658Y353072D01*
X488487Y353577D01*
X487434Y355401D01*
X487082Y355802D01*
X486785Y356246D01*
X485296Y357735D01*
X484852Y358032D01*
X484451Y358384D01*
X483520Y358921D01*
X483471Y359054D01*
X483051Y360947D01*
Y361353D01*
X483471Y363246D01*
X483520Y363379D01*
X484451Y363916D01*
X484852Y364268D01*
X485296Y364565D01*
X486785Y366054D01*
X487082Y366498D01*
X487434Y366899D01*
X488487Y368723D01*
X488658Y369228D01*
X488894Y369706D01*
X489439Y371741D01*
X489474Y372273D01*
X489578Y372797D01*
Y374903D01*
X489474Y375426D01*
X489439Y375959D01*
X488894Y377994D01*
X488866Y378051D01*
X497492Y386678D01*
X498615Y388140D01*
X499320Y389843D01*
X499560Y391670D01*
Y482710D01*
X499320Y484537D01*
X498615Y486240D01*
X497492Y487702D01*
X488959Y496236D01*
X489859Y499980D01*
X643262D01*
Y499797D01*
X643366Y499274D01*
X643401Y498741D01*
X643946Y496707D01*
X644182Y496228D01*
X644353Y495723D01*
X645406Y493899D01*
X645758Y493498D01*
X646055Y493054D01*
X647544Y491564D01*
X647988Y491268D01*
X648389Y490916D01*
X649320Y490379D01*
X649369Y490246D01*
X649789Y488353D01*
Y487947D01*
X649369Y486054D01*
X649320Y485921D01*
X648389Y485384D01*
X647988Y485032D01*
X647544Y484735D01*
X646055Y483246D01*
X645758Y482802D01*
X645406Y482401D01*
X644353Y480577D01*
X644182Y480072D01*
X643946Y479593D01*
X643401Y477559D01*
X643366Y477026D01*
X643262Y476503D01*
Y474397D01*
X643366Y473874D01*
X643401Y473341D01*
X643946Y471307D01*
X644182Y470828D01*
X644353Y470323D01*
X645406Y468499D01*
X645758Y468098D01*
X646055Y467654D01*
X647544Y466165D01*
X647988Y465868D01*
X648389Y465516D01*
X649320Y464979D01*
X649369Y464846D01*
X649789Y462953D01*
Y462547D01*
X649369Y460654D01*
X649320Y460521D01*
X648389Y459984D01*
X647988Y459632D01*
X647544Y459335D01*
X646055Y457846D01*
X645758Y457402D01*
X645406Y457001D01*
X644353Y455177D01*
X644182Y454672D01*
X643946Y454193D01*
X643401Y452159D01*
X643366Y451626D01*
X643262Y451103D01*
Y448997D01*
X643366Y448474D01*
X643401Y447941D01*
X643946Y445907D01*
X644182Y445428D01*
X644353Y444923D01*
X645406Y443099D01*
X645758Y442698D01*
X646055Y442254D01*
X647544Y440765D01*
X647988Y440468D01*
X648389Y440116D01*
X649320Y439579D01*
X649369Y439446D01*
X649789Y437553D01*
Y437147D01*
X649369Y435254D01*
X649320Y435121D01*
X648389Y434584D01*
X647988Y434232D01*
X647544Y433935D01*
X646055Y432446D01*
X645758Y432002D01*
X645406Y431601D01*
X644353Y429777D01*
X644182Y429272D01*
X643946Y428793D01*
X643401Y426759D01*
X643366Y426226D01*
X643262Y425703D01*
Y423597D01*
X643366Y423074D01*
X643401Y422541D01*
X643946Y420507D01*
X644182Y420028D01*
X644353Y419523D01*
X645406Y417699D01*
X645758Y417298D01*
X646055Y416854D01*
X647544Y415364D01*
X647988Y415068D01*
X648389Y414716D01*
X649320Y414179D01*
X649369Y414046D01*
X649789Y412153D01*
Y411747D01*
X649369Y409854D01*
X649320Y409721D01*
X648389Y409184D01*
X647988Y408832D01*
X647544Y408535D01*
X646055Y407046D01*
X645758Y406602D01*
X645406Y406201D01*
X644353Y404377D01*
X644182Y403872D01*
X643946Y403393D01*
X643401Y401359D01*
X643366Y400826D01*
X643262Y400303D01*
Y398197D01*
X643366Y397674D01*
X643401Y397141D01*
X643946Y395107D01*
X644182Y394628D01*
X644353Y394123D01*
X645406Y392299D01*
X645758Y391898D01*
X646055Y391454D01*
X647544Y389964D01*
X647988Y389668D01*
X648389Y389316D01*
X649320Y388779D01*
X649369Y388646D01*
X649789Y386753D01*
Y386347D01*
X649369Y384454D01*
X649320Y384321D01*
X648389Y383784D01*
X647988Y383432D01*
X647544Y383135D01*
X646055Y381646D01*
X645758Y381202D01*
X645406Y380801D01*
X644353Y378977D01*
X644182Y378472D01*
X643946Y377993D01*
X643401Y375959D01*
X643366Y375426D01*
X643262Y374903D01*
Y372797D01*
X643366Y372274D01*
X643401Y371741D01*
X643946Y369707D01*
X644182Y369228D01*
X644353Y368723D01*
X645406Y366899D01*
X645758Y366498D01*
X646055Y366054D01*
X647544Y364565D01*
X647988Y364268D01*
X648389Y363916D01*
X649320Y363379D01*
X649369Y363246D01*
X649789Y361353D01*
Y360947D01*
X649369Y359054D01*
X649320Y358921D01*
X648389Y358384D01*
X647988Y358032D01*
X647544Y357735D01*
X646055Y356246D01*
X645758Y355802D01*
X645406Y355401D01*
X644353Y353577D01*
X644182Y353072D01*
X643946Y352593D01*
X643401Y350559D01*
X643366Y350026D01*
X643262Y349503D01*
Y347397D01*
X643366Y346874D01*
X643401Y346341D01*
X643946Y344307D01*
X644182Y343828D01*
X644353Y343323D01*
X645406Y341499D01*
X645758Y341098D01*
X646055Y340654D01*
X647544Y339165D01*
X647988Y338868D01*
X648389Y338516D01*
X649320Y337979D01*
X649369Y337846D01*
X649789Y335953D01*
Y335547D01*
X649369Y333654D01*
X649320Y333521D01*
X648389Y332984D01*
X647988Y332632D01*
X647544Y332335D01*
X646055Y330846D01*
X645758Y330402D01*
X645406Y330001D01*
X644353Y328177D01*
X644182Y327672D01*
X643946Y327193D01*
X643401Y325159D01*
X643366Y324626D01*
X643262Y324103D01*
Y321997D01*
X643366Y321474D01*
X643401Y320941D01*
X643946Y318907D01*
X644182Y318428D01*
X644353Y317923D01*
X645406Y316099D01*
X645758Y315698D01*
X646055Y315254D01*
X647544Y313764D01*
X647988Y313468D01*
X648389Y313116D01*
X650213Y312063D01*
X650718Y311892D01*
X651197Y311656D01*
X653231Y311111D01*
X653764Y311076D01*
X654287Y310972D01*
X679340D01*
X680901Y311282D01*
X682224Y312166D01*
X683108Y313489D01*
X683418Y315050D01*
Y331050D01*
X683108Y332611D01*
X682670Y333266D01*
X682224Y334127D01*
Y337373D01*
X682670Y338234D01*
X683108Y338889D01*
X683418Y340450D01*
Y356450D01*
X683108Y358011D01*
X682670Y358666D01*
X682224Y359527D01*
Y362772D01*
X682670Y363634D01*
X683108Y364289D01*
X683418Y365850D01*
Y372980D01*
X704156D01*
X709645Y367490D01*
X719630D01*
Y377475D01*
X712072Y385033D01*
X710610Y386155D01*
X708907Y386860D01*
X707080Y387100D01*
X686189D01*
X685440Y387730D01*
X683389Y391100D01*
X683418Y391250D01*
Y407250D01*
X683108Y408811D01*
X682670Y409466D01*
X682224Y410327D01*
Y413573D01*
X682670Y414434D01*
X683108Y415089D01*
X683418Y416650D01*
Y432650D01*
X683108Y434211D01*
X682670Y434866D01*
X682224Y435727D01*
Y438973D01*
X682670Y439834D01*
X683108Y440489D01*
X683418Y442050D01*
Y458050D01*
X683108Y459611D01*
X682670Y460266D01*
X682224Y461127D01*
Y464372D01*
X682670Y465234D01*
X683108Y465889D01*
X683418Y467450D01*
Y473541D01*
X683951Y473973D01*
X687418Y475107D01*
X705198Y457328D01*
X706660Y456205D01*
X707615Y455810D01*
X709090Y454335D01*
Y445320D01*
X717090D01*
Y454820D01*
X723090D01*
Y445320D01*
X731090D01*
X732544Y441922D01*
Y410915D01*
X728288Y406658D01*
X727166Y405196D01*
X726460Y403493D01*
X726220Y401665D01*
Y376240D01*
X725630D01*
Y364490D01*
Y352740D01*
X728935D01*
X736928Y344748D01*
X738390Y343626D01*
X740093Y342920D01*
X741920Y342680D01*
X870980D01*
X872807Y342920D01*
X874510Y343626D01*
X875972Y344748D01*
X884612Y353388D01*
X885734Y354850D01*
X886440Y356553D01*
X886680Y358380D01*
Y467402D01*
X886440Y469229D01*
X885734Y470932D01*
X884612Y472394D01*
X835656Y521350D01*
Y530654D01*
X835596Y531113D01*
Y533305D01*
X839596Y534962D01*
X855308Y519251D01*
X856770Y518129D01*
X858473Y517423D01*
X860300Y517183D01*
X865300D01*
Y512630D01*
X887300D01*
Y531630D01*
X887300D01*
Y532630D01*
X887300D01*
Y551630D01*
X883360D01*
Y579940D01*
X887300D01*
Y595940D01*
X887300Y598940D01*
X887300Y602940D01*
Y618940D01*
X883360D01*
Y693650D01*
X883120Y695477D01*
X882414Y697180D01*
X881292Y698643D01*
X880780Y699155D01*
Y714185D01*
X892458Y725863D01*
X895658Y723407D01*
X895598Y723302D01*
X894780Y720250D01*
Y717090D01*
X895598Y714038D01*
X897178Y711302D01*
X899412Y709068D01*
X902148Y707488D01*
X905200Y706670D01*
X908360D01*
X911412Y707488D01*
X914148Y709068D01*
X916382Y711302D01*
X917962Y714038D01*
X918780Y717090D01*
Y720250D01*
X917962Y723302D01*
X916382Y726038D01*
X914148Y728272D01*
X911412Y729852D01*
X908360Y730670D01*
X905200D01*
X902148Y729852D01*
X902044Y729792D01*
X899587Y732992D01*
X932205Y765610D01*
X939780D01*
X940239Y765670D01*
X961097D01*
Y261913D01*
X930631D01*
X929331Y265913D01*
X931013Y267135D01*
X934285Y270407D01*
X937005Y274151D01*
X939106Y278274D01*
X940536Y282675D01*
X941151Y286560D01*
X882569D01*
X883184Y282675D01*
X884614Y278274D01*
X886715Y274151D01*
X889435Y270407D01*
X892707Y267135D01*
X894389Y265913D01*
X893089Y261913D01*
X415011D01*
X413711Y265913D01*
X415393Y267135D01*
X418665Y270407D01*
X421385Y274151D01*
X423486Y278274D01*
X424916Y282675D01*
X425531Y286560D01*
X396240D01*
Y289560D01*
X393240D01*
Y318851D01*
X389356Y318236D01*
X384954Y316806D01*
X380831Y314705D01*
X377087Y311985D01*
X373815Y308713D01*
X371323Y305283D01*
X370861Y305261D01*
X367323Y307672D01*
Y800379D01*
X371323Y801679D01*
X372545Y799997D01*
D02*
G37*
%LPC*%
G36*
X880780Y814670D02*
X869280D01*
Y802670D01*
X880780D01*
Y814670D01*
D02*
G37*
G36*
X863280D02*
X851780D01*
Y802670D01*
X863280D01*
Y814670D01*
D02*
G37*
G36*
X880780Y796670D02*
X869280D01*
Y784670D01*
X880780D01*
Y796670D01*
D02*
G37*
G36*
X908360Y800670D02*
X905200D01*
X902148Y799852D01*
X899412Y798272D01*
X897178Y796038D01*
X895598Y793302D01*
X894780Y790250D01*
Y787090D01*
X895598Y784038D01*
X897178Y781302D01*
X899412Y779068D01*
X902148Y777488D01*
X905200Y776670D01*
X908360D01*
X911412Y777488D01*
X914148Y779068D01*
X916382Y781302D01*
X917962Y784038D01*
X918780Y787090D01*
Y790250D01*
X917962Y793302D01*
X916382Y796038D01*
X914148Y798272D01*
X911412Y799852D01*
X908360Y800670D01*
D02*
G37*
G36*
X782630D02*
X779470D01*
X776418Y799852D01*
X773682Y798272D01*
X771448Y796038D01*
X769868Y793302D01*
X769050Y790250D01*
Y787090D01*
X769868Y784038D01*
X771448Y781302D01*
X773682Y779068D01*
X776418Y777488D01*
X779470Y776670D01*
X782630D01*
X785682Y777488D01*
X788418Y779068D01*
X790652Y781302D01*
X792232Y784038D01*
X793050Y787090D01*
Y790250D01*
X792232Y793302D01*
X790652Y796038D01*
X788418Y798272D01*
X785682Y799852D01*
X782630Y800670D01*
D02*
G37*
G36*
X415324Y505000D02*
X406860D01*
Y496536D01*
X408434Y496958D01*
X411136Y498518D01*
X413342Y500724D01*
X414902Y503426D01*
X415324Y505000D01*
D02*
G37*
G36*
X400860D02*
X392396D01*
X392818Y503426D01*
X394378Y500724D01*
X396584Y498518D01*
X399286Y496958D01*
X400860Y496536D01*
Y505000D01*
D02*
G37*
G36*
X931780Y682670D02*
X896780D01*
Y648670D01*
X931780D01*
Y682670D01*
D02*
G37*
G36*
X400860Y394510D02*
X392396D01*
X392818Y392936D01*
X394378Y390234D01*
X396584Y388028D01*
X399286Y386468D01*
X400860Y386046D01*
Y394510D01*
D02*
G37*
G36*
X719630Y361490D02*
X710880D01*
Y352740D01*
X719630D01*
Y361490D01*
D02*
G37*
G36*
X592873Y337428D02*
X590767D01*
X590243Y337324D01*
X589711Y337289D01*
X587677Y336744D01*
X587198Y336508D01*
X586693Y336337D01*
X584869Y335284D01*
X584468Y334932D01*
X584024Y334635D01*
X582534Y333146D01*
X582238Y332702D01*
X581886Y332301D01*
X581349Y331370D01*
X581216Y331321D01*
X579323Y330901D01*
X578917D01*
X577024Y331321D01*
X576891Y331370D01*
X576353Y332301D01*
X576002Y332702D01*
X575705Y333146D01*
X574216Y334635D01*
X573772Y334932D01*
X573371Y335284D01*
X571547Y336337D01*
X571042Y336508D01*
X570564Y336744D01*
X568529Y337289D01*
X567996Y337324D01*
X567473Y337428D01*
X565367D01*
X564843Y337324D01*
X564311Y337289D01*
X562276Y336744D01*
X561798Y336508D01*
X561293Y336337D01*
X559469Y335284D01*
X559068Y334932D01*
X558624Y334635D01*
X557135Y333146D01*
X556838Y332702D01*
X556486Y332301D01*
X555949Y331370D01*
X555816Y331321D01*
X553923Y330901D01*
X553517D01*
X551624Y331321D01*
X551491Y331370D01*
X550953Y332301D01*
X550602Y332702D01*
X550305Y333146D01*
X548816Y334635D01*
X548372Y334932D01*
X547971Y335284D01*
X546147Y336337D01*
X545642Y336508D01*
X545163Y336744D01*
X543129Y337289D01*
X542597Y337324D01*
X542073Y337428D01*
X539967D01*
X539443Y337324D01*
X538911Y337289D01*
X536876Y336744D01*
X536398Y336508D01*
X535893Y336337D01*
X534069Y335284D01*
X533668Y334932D01*
X533224Y334635D01*
X531735Y333146D01*
X531438Y332702D01*
X531086Y332301D01*
X530033Y330477D01*
X529862Y329972D01*
X529626Y329493D01*
X529081Y327459D01*
X529046Y326926D01*
X528942Y326403D01*
X528942Y325350D01*
Y301350D01*
X529252Y299789D01*
X530136Y298466D01*
X531459Y297582D01*
X533020Y297272D01*
X549020D01*
X550581Y297582D01*
X551236Y298020D01*
X552097Y298466D01*
X555342D01*
X556204Y298020D01*
X556859Y297582D01*
X558420Y297272D01*
X574420D01*
X575981Y297582D01*
X576636Y298020D01*
X577497Y298466D01*
X580742D01*
X581604Y298020D01*
X582259Y297582D01*
X583820Y297272D01*
X599820D01*
X601381Y297582D01*
X602704Y298466D01*
X603588Y299789D01*
X603898Y301350D01*
Y326403D01*
X603794Y326926D01*
X603759Y327459D01*
X603214Y329493D01*
X602978Y329972D01*
X602807Y330477D01*
X601754Y332301D01*
X601402Y332702D01*
X601105Y333146D01*
X599616Y334635D01*
X599172Y334932D01*
X598771Y335284D01*
X596947Y336337D01*
X596442Y336508D01*
X595964Y336744D01*
X593929Y337289D01*
X593396Y337324D01*
X592873Y337428D01*
D02*
G37*
G36*
X914860Y318851D02*
Y292560D01*
X941151D01*
X940536Y296444D01*
X939106Y300846D01*
X937005Y304969D01*
X934285Y308713D01*
X931013Y311985D01*
X927269Y314705D01*
X923146Y316806D01*
X918745Y318236D01*
X914860Y318851D01*
D02*
G37*
G36*
X908860D02*
X904976Y318236D01*
X900574Y316806D01*
X896451Y314705D01*
X892707Y311985D01*
X889435Y308713D01*
X886715Y304969D01*
X884614Y300846D01*
X883184Y296444D01*
X882569Y292560D01*
X908860D01*
Y318851D01*
D02*
G37*
G36*
X399240D02*
Y292560D01*
X425531D01*
X424916Y296444D01*
X423486Y300846D01*
X421385Y304969D01*
X418665Y308713D01*
X415393Y311985D01*
X411649Y314705D01*
X407526Y316806D01*
X403125Y318236D01*
X399240Y318851D01*
D02*
G37*
%LPD*%
G36*
X594908Y332805D02*
X596732Y331752D01*
X598222Y330262D01*
X599275Y328438D01*
X599820Y326403D01*
Y325350D01*
Y301350D01*
X583820D01*
Y325350D01*
X583820Y326403D01*
X584365Y328438D01*
X585418Y330262D01*
X586908Y331752D01*
X588732Y332805D01*
X590767Y333350D01*
X592873D01*
X594908Y332805D01*
D02*
G37*
G36*
X569508D02*
X571332Y331752D01*
X572822Y330262D01*
X573875Y328438D01*
X574420Y326403D01*
Y325350D01*
Y301350D01*
X558420D01*
Y325350D01*
X558420Y326403D01*
X558965Y328438D01*
X560018Y330262D01*
X561508Y331752D01*
X563332Y332805D01*
X565367Y333350D01*
X567473D01*
X569508Y332805D01*
D02*
G37*
G36*
X544108D02*
X545932Y331752D01*
X547422Y330262D01*
X548475Y328438D01*
X549020Y326403D01*
Y325350D01*
Y301350D01*
X533020D01*
Y325350D01*
X533020Y326403D01*
X533565Y328438D01*
X534618Y330262D01*
X536108Y331752D01*
X537932Y332805D01*
X539967Y333350D01*
X542073D01*
X544108Y332805D01*
D02*
G37*
D17*
X773430Y619760D02*
D03*
Y607060D02*
D03*
Y594360D02*
D03*
Y581660D02*
D03*
Y568960D02*
D03*
Y556260D02*
D03*
Y543560D02*
D03*
Y530860D02*
D03*
X821690D02*
D03*
Y543560D02*
D03*
Y556260D02*
D03*
Y568960D02*
D03*
Y581660D02*
D03*
Y594360D02*
D03*
Y607060D02*
D03*
Y619760D02*
D03*
D18*
X467020Y729290D02*
D03*
X665820Y627690D02*
D03*
Y754690D02*
D03*
Y500690D02*
D03*
Y373690D02*
D03*
X467020Y627690D02*
D03*
Y373690D02*
D03*
Y500690D02*
D03*
X665820Y805490D02*
D03*
X467020Y780090D02*
D03*
Y805490D02*
D03*
Y322890D02*
D03*
Y348290D02*
D03*
Y399090D02*
D03*
Y424490D02*
D03*
Y449890D02*
D03*
Y475290D02*
D03*
Y526090D02*
D03*
Y551490D02*
D03*
Y576890D02*
D03*
Y602290D02*
D03*
Y653090D02*
D03*
Y678490D02*
D03*
Y703890D02*
D03*
X665820Y780090D02*
D03*
Y729290D02*
D03*
Y703890D02*
D03*
Y678490D02*
D03*
Y653090D02*
D03*
Y602290D02*
D03*
Y576890D02*
D03*
Y551490D02*
D03*
Y526090D02*
D03*
Y475290D02*
D03*
Y449890D02*
D03*
Y424490D02*
D03*
Y399090D02*
D03*
Y348290D02*
D03*
Y322890D02*
D03*
D19*
X866280Y799670D02*
D03*
X947280Y780670D02*
D03*
X740550Y799670D02*
D03*
X821550Y780670D02*
D03*
D20*
X720090Y608170D02*
D03*
Y454820D02*
D03*
Y522130D02*
D03*
Y588170D02*
D03*
Y542130D02*
D03*
Y474820D02*
D03*
X876300Y589440D02*
D03*
Y609440D02*
D03*
Y542130D02*
D03*
Y522130D02*
D03*
X773430Y454980D02*
D03*
Y474980D02*
D03*
D21*
X836770Y473710D02*
D03*
X816610Y425450D02*
D03*
X836610D02*
D03*
X816770Y473710D02*
D03*
D22*
X469520Y754690D02*
D03*
D23*
X914280Y665670D02*
D03*
X788550D02*
D03*
D24*
X866280Y706670D02*
D03*
X740550D02*
D03*
D25*
X947280Y807670D02*
D03*
X821550D02*
D03*
D26*
X591820Y314690D02*
D03*
X566420D02*
D03*
X541020D02*
D03*
D27*
X556519Y807262D02*
D03*
X576519D02*
D03*
X566519Y774262D02*
D03*
X541519Y739262D02*
D03*
Y714262D02*
D03*
Y689262D02*
D03*
D39*
X403860Y508000D02*
D03*
Y533400D02*
D03*
Y422910D02*
D03*
Y397510D02*
D03*
Y643890D02*
D03*
Y618490D02*
D03*
D40*
Y558800D02*
D03*
Y448310D02*
D03*
Y669290D02*
D03*
D45*
X720090Y542130D02*
Y588170D01*
X443960Y488410D02*
Y721809D01*
X403860Y448310D02*
X443960Y488410D01*
X471980Y634040D02*
X657216D01*
X469520Y500690D02*
X474520D01*
X672340Y502690D02*
Y507040D01*
X403860Y584399D02*
Y618490D01*
X379010Y422360D02*
X403860Y397510D01*
X379010Y559549D02*
X403860Y584399D01*
X379010Y422360D02*
Y559549D01*
X469520Y634040D02*
X470500Y635020D01*
X403860Y397510D02*
X427680Y373690D01*
X423960Y578900D02*
Y753420D01*
X433960Y538100D02*
Y736700D01*
X783299Y349740D02*
X870980D01*
X879620Y358380D01*
Y467402D01*
X828596Y518426D02*
X879620Y467402D01*
X828596Y518426D02*
Y530654D01*
X828390Y530860D02*
X828596Y530654D01*
X821690Y530860D02*
X828390D01*
X672340Y507040D02*
X703500D01*
X814491Y558960D02*
X844540D01*
X773430Y607060D02*
X821690D01*
X720090Y499730D02*
X743307Y522948D01*
Y545537D01*
X756524Y515470D02*
Y536553D01*
X773430Y474980D02*
Y498564D01*
X756524Y515470D02*
X773430Y498564D01*
X763824Y540654D02*
X766730Y543560D01*
X773430D01*
X673320Y805490D02*
X675225Y807395D01*
X691485Y652263D02*
Y791135D01*
X675225Y807395D02*
X691485Y791135D01*
Y652263D02*
X723078Y620670D01*
X663320Y627690D02*
X673320D01*
X692840Y608170D01*
X720090D01*
X744090Y613801D02*
X763325Y594566D01*
X729989Y620670D02*
X734090Y616570D01*
Y599771D02*
Y616570D01*
X744090Y613801D02*
Y620712D01*
X727221Y630670D02*
X734132D01*
X720090Y588170D02*
X721590D01*
X728948Y595528D02*
X729847D01*
X723078Y620670D02*
X729989D01*
X723050Y634841D02*
X727221Y630670D01*
X734132D02*
X744090Y620712D01*
X721590Y588170D02*
X728948Y595528D01*
X729847D02*
X734090Y599771D01*
X723050Y634841D02*
Y735970D01*
X733050Y745970D01*
X740550Y645940D02*
Y706670D01*
X733050Y792170D02*
X740550Y799670D01*
X733050Y745970D02*
Y792170D01*
X773224Y594566D02*
X773430Y594360D01*
X763325Y594566D02*
X773224D01*
X720090Y454820D02*
X720120Y454790D01*
X736090D01*
X739605Y451275D01*
Y407990D02*
Y451275D01*
X733280Y401665D02*
X739605Y407990D01*
X733280Y358380D02*
Y401665D01*
Y358380D02*
X741920Y349740D01*
X783299D01*
X849110Y415550D01*
Y435350D01*
X836770Y447690D02*
X849110Y435350D01*
X836770Y447690D02*
Y473710D01*
X849270Y374290D02*
Y401568D01*
Y449332D02*
Y483610D01*
Y401568D02*
X859110Y411408D01*
Y439492D01*
X849270Y449332D02*
X859110Y439492D01*
X773430Y454980D02*
X774930D01*
X790330Y439580D02*
X824880D01*
X774930Y454980D02*
X790330Y439580D01*
X801370Y559982D02*
Y583940D01*
X794784Y533724D02*
X805776Y522732D01*
X794784Y533724D02*
Y553396D01*
X801370Y559982D01*
X773430Y518550D02*
Y530860D01*
Y518550D02*
X816770Y475210D01*
X808885Y591454D02*
X812084D01*
X801370Y583940D02*
X808885Y591454D01*
X812084D02*
X814784Y594154D01*
X804784Y537867D02*
X808885Y533766D01*
X804784Y549254D02*
X814491Y558960D01*
X804784Y537867D02*
Y549254D01*
X808885Y533766D02*
X812084D01*
X821690Y607060D02*
X841840D01*
X812084Y533766D02*
X814784Y531066D01*
X805776Y522732D02*
X807218D01*
X808885Y521066D01*
X811814D01*
X849270Y483610D01*
X840983Y543560D02*
X860300Y524243D01*
X874187D01*
X876300Y522130D01*
X824880Y439580D02*
X829252Y435207D01*
X760624Y540654D02*
X763824D01*
X756524Y536553D02*
X760624Y540654D01*
X841840Y607060D02*
X861710Y587190D01*
Y576130D02*
Y587190D01*
X844540Y558960D02*
X861710Y576130D01*
X657216Y807490D02*
X659216Y805490D01*
X663320D01*
X615703Y811840D02*
X657216D01*
Y807490D02*
Y811840D01*
X456160Y827000D02*
X513200D01*
X547720Y792480D01*
X596343D01*
X615703Y811840D01*
X403860Y669290D02*
Y754740D01*
X457065Y807945D02*
X458450Y809330D01*
X403860Y754740D02*
X457065Y807945D01*
X474520Y500690D02*
X492500Y482710D01*
Y391670D02*
Y482710D01*
X474520Y373690D02*
X492500Y391670D01*
X469520Y373690D02*
X474520D01*
X663320Y500690D02*
X670340D01*
X672340Y502690D01*
X659216Y500690D02*
X663320D01*
X427680Y373690D02*
X469520D01*
X528780Y507040D02*
X657216D01*
X389010Y658540D02*
Y759850D01*
X456160Y827000D01*
X460500Y807490D02*
Y809330D01*
X458450D02*
X460500D01*
X462500Y805490D02*
X469520D01*
X460500Y807490D02*
X462500Y805490D01*
X403860Y508000D02*
X433960Y538100D01*
X468680Y753850D02*
X469520Y754690D01*
X451110Y753850D02*
X468680D01*
X433960Y736700D02*
X451110Y753850D01*
X469520Y500690D02*
X473624D01*
X403860Y558800D02*
X423960Y578900D01*
X458360Y780090D02*
X469520D01*
X450250Y771980D02*
X458360Y780090D01*
X442520Y771980D02*
X450250D01*
X423960Y753420D02*
X442520Y771980D01*
X468680Y728450D02*
X469520Y729290D01*
X450601Y728450D02*
X468680D01*
X443960Y721809D02*
X450601Y728450D01*
X389010Y658540D02*
X403661Y643890D01*
X403860D01*
X492500Y754690D02*
X663320D01*
X469520D02*
X492500D01*
X470500Y635020D02*
Y638250D01*
X483713D01*
X492500Y647037D01*
Y754690D01*
X469520Y627690D02*
X469980D01*
X661320Y629690D02*
X663320Y627690D01*
X657216Y629690D02*
X661320D01*
X672340Y380040D02*
X707080D01*
X672340Y375690D02*
Y380040D01*
X670340Y373690D02*
X672340Y375690D01*
X663320Y373690D02*
X670340D01*
X707080Y380040D02*
X722630Y364490D01*
X673735Y504085D02*
X691485Y486335D01*
X718590Y454820D02*
X720090D01*
X711090Y462320D02*
X718590Y454820D01*
X710191Y462320D02*
X711090D01*
X691485Y481025D02*
X710191Y462320D01*
X691485Y481025D02*
Y486335D01*
X657216Y502690D02*
Y507040D01*
Y502690D02*
X659216Y500690D01*
X718590Y522130D02*
X720090D01*
X703500Y507040D02*
X718590Y522130D01*
X657216Y629690D02*
Y634040D01*
X475624Y507040D02*
X528780D01*
X475624Y502690D02*
Y507040D01*
X473624Y500690D02*
X475624Y502690D01*
X528780Y507040D02*
X652835Y631095D01*
X471980Y629690D02*
Y634040D01*
X469980Y627690D02*
X471980Y629690D01*
X866280Y799170D02*
Y799670D01*
X839050Y679771D02*
Y771940D01*
X866280Y799170D01*
X804784Y645505D02*
X839050Y679771D01*
X804784Y614067D02*
Y645505D01*
Y614067D02*
X808885Y609966D01*
X821690Y581660D02*
X848360D01*
X720090Y588170D02*
X722590Y585670D01*
X728670D02*
X728870Y585470D01*
X744220D01*
X722590Y585670D02*
X728670D01*
X821690Y568960D02*
Y581660D01*
X773430Y556260D02*
Y568960D01*
Y581660D01*
X743307Y545537D02*
X766730Y568960D01*
X748420D02*
X766730D01*
X721590Y542130D02*
X748420Y568960D01*
X720090Y474820D02*
Y499730D01*
Y542130D02*
X721590D01*
X740550Y709670D02*
X775800Y744920D01*
X786300D02*
X821550Y780170D01*
X775800Y744920D02*
X786300D01*
X821690Y619760D02*
X852170D01*
X821690Y543560D02*
X840983D01*
X839470Y364490D02*
X849270Y374290D01*
X876300Y542130D02*
Y589440D01*
X866280Y703670D02*
X876300Y693650D01*
Y609440D02*
Y693650D01*
X829252Y434308D02*
Y435207D01*
Y434308D02*
X836610Y426950D01*
X816770Y473710D02*
Y475210D01*
X748030Y364490D02*
X749848Y366308D01*
X758968D01*
X816610Y423950D01*
Y425450D01*
X836610D02*
Y426950D01*
X740550Y645940D02*
X766730Y619760D01*
X773430D01*
X821550Y780170D02*
Y780670D01*
X947280Y780170D02*
Y780670D01*
X939780Y772670D02*
X947280Y780170D01*
X929280Y772670D02*
X939780D01*
X866280Y709670D02*
X929280Y772670D01*
X866280Y706670D02*
Y709670D01*
D46*
X396240Y289560D02*
D03*
X394970Y819150D02*
D03*
X911860Y289560D02*
D03*
D47*
X722630Y364490D02*
D03*
X839470D02*
D03*
D48*
X748030D02*
D03*
X864870D02*
D03*
D49*
X848360Y581660D02*
D03*
X744220Y585470D02*
D03*
X852170Y619760D02*
D03*
M02*
