M48
;Layer_Color=9474304
;FILE_FORMAT=4:4
METRIC,LZ
;TYPE=PLATED
T01F00S00C0.7112
T02F00S00C1.0200
T03F00S00C4.0000
;TYPE=NON_PLATED
T04F00S00C1.6000
%
T01
X0084836Y0058166
X0085217Y0061976
X0074422Y0058547
T02
X0072263Y0036449
X0074803
X0083947
X0086487
X0040386Y0039751
Y0042291
Y0044831
Y00508
Y005334
Y005588
Y0061849
Y0064389
Y0066929
T03
X0039624Y0028956
X0091186
X0039497Y0081915
T04
X0090678Y0071867
Y0078867
X0078105
Y0071867
M30
