G04*
G04 #@! TF.GenerationSoftware,Altium Limited,Altium Designer,25.8.1 (18)*
G04*
G04 Layer_Color=2752767*
%FSLAX44Y44*%
%MOMM*%
G71*
G04*
G04 #@! TF.SameCoordinates,71B8C197-EE49-42B5-B996-358C315723FC*
G04*
G04*
G04 #@! TF.FilePolarity,Positive*
G04*
G01*
G75*
%ADD50C,0.1270*%
%ADD51C,0.1693*%
D50*
X396240Y284480D02*
X398780Y287020D01*
X401320D01*
X398780Y289560D01*
X401320Y292100D01*
X398780D01*
X396240Y294640D01*
X393700Y292100D01*
X391160D01*
X393700Y289560D01*
X391160Y287020D01*
X393700D01*
X396240Y284480D01*
X394970Y814070D02*
X397510Y816610D01*
X400050D01*
X397510Y819150D01*
X400050Y821690D01*
X397510D01*
X394970Y824230D01*
X392430Y821690D01*
X389890D01*
X392430Y819150D01*
X389890Y816610D01*
X392430D01*
X394970Y814070D01*
X398780Y502920D02*
Y513080D01*
X408940D01*
Y502920D01*
X398780D01*
Y528320D02*
Y538480D01*
X408940D01*
Y528320D01*
X398780D01*
Y553720D02*
Y563880D01*
X408940D01*
Y553720D01*
X398780D01*
Y443230D02*
Y453390D01*
X408940D01*
Y443230D01*
X398780D01*
Y417830D02*
Y427990D01*
X408940D01*
Y417830D01*
X398780D01*
Y392430D02*
Y402590D01*
X408940D01*
Y392430D01*
X398780D01*
Y664210D02*
Y674370D01*
X408940D01*
Y664210D01*
X398780D01*
Y638810D02*
Y648970D01*
X408940D01*
Y638810D01*
X398780D01*
Y613410D02*
Y623570D01*
X408940D01*
Y613410D01*
X398780D01*
X911860Y284480D02*
X914400Y287020D01*
X916940D01*
X914400Y289560D01*
X916940Y292100D01*
X914400D01*
X911860Y294640D01*
X909320Y292100D01*
X906780D01*
X909320Y289560D01*
X906780Y287020D01*
X909320D01*
X911860Y284480D01*
X717550Y359410D02*
Y369570D01*
X727710D01*
Y359410D01*
X717550D01*
X742950D02*
Y369570D01*
X753110D01*
Y359410D01*
X742950D01*
X859790D02*
Y369570D01*
X869950D01*
Y359410D01*
X859790D01*
X834390D02*
Y369570D01*
X844550D01*
Y359410D01*
X834390D01*
X848360Y576580D02*
X843280Y586740D01*
X853440D01*
X848360Y576580D01*
X744220Y580390D02*
X739140Y590550D01*
X749300D01*
X744220Y580390D01*
X852170Y614680D02*
X847090Y624840D01*
X857250D01*
X852170Y614680D01*
D51*
X911860Y718670D02*
G03*
X911860Y718670I-5080J0D01*
G01*
Y788670D02*
G03*
X911860Y788670I-5080J0D01*
G01*
X786130Y718670D02*
G03*
X786130Y718670I-5080J0D01*
G01*
Y788670D02*
G03*
X786130Y788670I-5080J0D01*
G01*
M02*
