G04*
G04 #@! TF.GenerationSoftware,Altium Limited,Altium Designer,25.8.1 (18)*
G04*
G04 Layer_Color=65535*
%FSLAX44Y44*%
%MOMM*%
G71*
G04*
G04 #@! TF.SameCoordinates,71B8C197-EE49-42B5-B996-358C315723FC*
G04*
G04*
G04 #@! TF.FilePolarity,Positive*
G04*
G01*
G75*
%ADD10C,0.2500*%
%ADD11C,0.5080*%
%ADD12C,0.1524*%
%ADD13C,0.2000*%
%ADD14C,0.1000*%
%ADD15C,0.2540*%
%ADD16C,0.0762*%
G36*
X834136Y545465D02*
X836676D01*
Y541655D01*
X834136D01*
Y545465D01*
D02*
G37*
D10*
X851530Y799670D02*
G03*
X851530Y799670I-1250J0D01*
G01*
X725800D02*
G03*
X725800Y799670I-1250J0D01*
G01*
D11*
X441580Y805490D02*
G03*
X441580Y805490I-2540J0D01*
G01*
D12*
X776351Y524002D02*
X818769D01*
X776351Y626618D02*
X818769D01*
D13*
X390160Y572750D02*
X417560D01*
X390160Y494050D02*
Y572750D01*
Y494050D02*
X417560D01*
Y572750D01*
Y383560D02*
Y462260D01*
X390160Y383560D02*
X417560D01*
X390160D02*
Y462260D01*
X417560D01*
Y604540D02*
Y683240D01*
X390160Y604540D02*
X417560D01*
X390160D02*
Y683240D01*
X417560D01*
X936780Y678670D02*
Y765670D01*
X876780Y724170D02*
Y784670D01*
X931780Y678670D02*
X936780D01*
X876780D02*
X896780D01*
X876780D02*
Y689170D01*
X936780Y821670D02*
Y823670D01*
X876780Y814670D02*
Y823670D01*
X936780D01*
X811050Y678670D02*
Y765670D01*
X751050Y724170D02*
Y784670D01*
X806050Y678670D02*
X811050D01*
X751050D02*
X771050D01*
X751050D02*
Y689170D01*
X811050Y821670D02*
Y823670D01*
X751050Y814670D02*
Y823670D01*
X811050D01*
X762630Y351790D02*
Y377190D01*
X708030Y351790D02*
X762630D01*
X708030D02*
Y377190D01*
X762630D01*
X824870D02*
X879470D01*
X824870Y351790D02*
Y377190D01*
Y351790D02*
X879470D01*
Y377190D01*
D14*
X867300Y581440D02*
Y617440D01*
X885300D01*
Y581440D02*
Y617440D01*
X867300Y581440D02*
X885300D01*
X711090Y580170D02*
X729090D01*
Y616170D01*
X711090D02*
X729090D01*
X711090Y580170D02*
Y616170D01*
X844610Y416450D02*
Y434450D01*
X808610D02*
X844610D01*
X808610Y416450D02*
Y434450D01*
Y416450D02*
X844610D01*
X808770Y464710D02*
Y482710D01*
Y464710D02*
X844770D01*
Y482710D01*
X808770D02*
X844770D01*
X711090Y482820D02*
X729090D01*
X711090Y446820D02*
Y482820D01*
Y446820D02*
X729090D01*
Y482820D01*
X711090Y550130D02*
X729090D01*
X711090Y514130D02*
Y550130D01*
Y514130D02*
X729090D01*
Y550130D01*
X867300Y514130D02*
X885300D01*
Y550130D01*
X867300D02*
X885300D01*
X867300Y514130D02*
Y550130D01*
X764430Y482980D02*
X782430D01*
X764430Y446980D02*
Y482980D01*
Y446980D02*
X782430D01*
Y482980D01*
D15*
X606680Y302570D02*
X683260D01*
X449580D02*
X525400D01*
X683260D02*
Y825500D01*
X612140D02*
Y840740D01*
X520700D02*
X612140D01*
X520700Y825500D02*
Y840740D01*
X449580Y302570D02*
Y825500D01*
X520700D01*
X612140D02*
X683260D01*
X825504Y647698D02*
Y635002D01*
X828043Y632463D01*
X833122D01*
X835661Y635002D01*
Y647698D01*
X850896Y632463D02*
X840739D01*
X850896Y642619D01*
Y645158D01*
X848357Y647698D01*
X843278D01*
X840739Y645158D01*
X400809Y597657D02*
X395730D01*
X398270D01*
Y584961D01*
X395730Y582422D01*
X393191D01*
X390652Y584961D01*
X416044Y582422D02*
X405887D01*
X416044Y592579D01*
Y595118D01*
X413505Y597657D01*
X408426D01*
X405887Y595118D01*
X400809Y487167D02*
X395730D01*
X398270D01*
Y474471D01*
X395730Y471932D01*
X393191D01*
X390652Y474471D01*
X405887Y484628D02*
X408426Y487167D01*
X413505D01*
X416044Y484628D01*
Y482089D01*
X413505Y479549D01*
X410965D01*
X413505D01*
X416044Y477010D01*
Y474471D01*
X413505Y471932D01*
X408426D01*
X405887Y474471D01*
X400809Y708147D02*
X395730D01*
X398270D01*
Y695451D01*
X395730Y692912D01*
X393191D01*
X390652Y695451D01*
X405887Y692912D02*
X410965D01*
X408426D01*
Y708147D01*
X405887Y705608D01*
X957573Y646430D02*
X942338D01*
Y638812D01*
X944877Y636273D01*
X947417D01*
X949956Y638812D01*
Y646430D01*
Y638812D01*
X952495Y636273D01*
X955034D01*
X957573Y638812D01*
Y646430D01*
X952495Y631195D02*
X942338D01*
X947417D01*
X949956Y628656D01*
X952495Y626117D01*
Y623577D01*
X942338Y613421D02*
Y608342D01*
X944877Y605803D01*
X949956D01*
X952495Y608342D01*
Y613421D01*
X949956Y615960D01*
X944877D01*
X942338Y613421D01*
X952495Y600725D02*
X944877D01*
X942338Y598186D01*
X944877Y595646D01*
X942338Y593107D01*
X944877Y590568D01*
X952495D01*
X942338Y585490D02*
X952495D01*
Y577872D01*
X949956Y575333D01*
X942338D01*
X952495Y552480D02*
Y547402D01*
X949956Y544863D01*
X942338D01*
Y552480D01*
X944877Y555019D01*
X947417Y552480D01*
Y544863D01*
X942338Y539785D02*
X952495D01*
Y532167D01*
X949956Y529628D01*
X942338D01*
X957573Y514393D02*
X942338D01*
Y522010D01*
X944877Y524549D01*
X949956D01*
X952495Y522010D01*
Y514393D01*
X957573Y483923D02*
Y494079D01*
X949956D01*
Y489001D01*
Y494079D01*
X942338D01*
X952495Y478844D02*
X942338D01*
X947417D01*
X949956Y476305D01*
X952495Y473766D01*
Y471227D01*
X942338Y463609D02*
Y458531D01*
Y461070D01*
X952495D01*
Y463609D01*
X942338Y443296D02*
Y448374D01*
X944877Y450913D01*
X949956D01*
X952495Y448374D01*
Y443296D01*
X949956Y440756D01*
X947417D01*
Y450913D01*
X942338Y435678D02*
X952495D01*
Y428061D01*
X949956Y425521D01*
X942338D01*
X957573Y410286D02*
X942338D01*
Y417904D01*
X944877Y420443D01*
X949956D01*
X952495Y417904D01*
Y410286D01*
X942338Y405208D02*
Y397590D01*
X944877Y395051D01*
X947417Y397590D01*
Y402669D01*
X949956Y405208D01*
X952495Y402669D01*
Y395051D01*
X937260Y374738D02*
X952495D01*
Y367120D01*
X949956Y364581D01*
X944877D01*
X942338Y367120D01*
Y374738D01*
X952495Y359503D02*
X942338D01*
X947417D01*
X949956Y356964D01*
X952495Y354424D01*
Y351885D01*
X942338Y336650D02*
Y341729D01*
X944877Y344268D01*
X949956D01*
X952495Y341729D01*
Y336650D01*
X949956Y334111D01*
X947417D01*
Y344268D01*
X942338Y329033D02*
Y321415D01*
X944877Y318876D01*
X947417Y321415D01*
Y326493D01*
X949956Y329033D01*
X952495Y326493D01*
Y318876D01*
X942338Y306180D02*
Y311258D01*
X944877Y313798D01*
X949956D01*
X952495Y311258D01*
Y306180D01*
X949956Y303641D01*
X947417D01*
Y313798D01*
X942338Y298563D02*
X952495D01*
Y290945D01*
X949956Y288406D01*
X942338D01*
X955034Y280788D02*
X952495D01*
Y283327D01*
Y278249D01*
Y280788D01*
X944877D01*
X942338Y278249D01*
X952495Y270632D02*
Y268092D01*
X949956D01*
Y270632D01*
X952495D01*
X944877D02*
Y268092D01*
X942338D01*
Y270632D01*
X944877D01*
X932175Y645160D02*
X916940D01*
Y637542D01*
X919479Y635003D01*
X929636D01*
X932175Y637542D01*
Y645160D01*
X916940Y622307D02*
Y627386D01*
X919479Y629925D01*
X924557D01*
X927097Y627386D01*
Y622307D01*
X924557Y619768D01*
X922018D01*
Y629925D01*
X927097Y612151D02*
Y607072D01*
X924557Y604533D01*
X916940D01*
Y612151D01*
X919479Y614690D01*
X922018Y612151D01*
Y604533D01*
X916940Y596916D02*
X929636D01*
X924557D01*
Y599455D01*
Y594376D01*
Y596916D01*
X929636D01*
X932175Y594376D01*
X916940Y586759D02*
Y581680D01*
Y584220D01*
X927097D01*
Y586759D01*
X916940Y574063D02*
X927097D01*
Y566446D01*
X924557Y563906D01*
X916940D01*
X927097Y556289D02*
Y551210D01*
X924557Y548671D01*
X916940D01*
Y556289D01*
X919479Y558828D01*
X922018Y556289D01*
Y548671D01*
X929636Y541054D02*
X927097D01*
Y543593D01*
Y538515D01*
Y541054D01*
X919479D01*
X916940Y538515D01*
Y528358D02*
Y523279D01*
X919479Y520740D01*
X924557D01*
X927097Y523279D01*
Y528358D01*
X924557Y530897D01*
X919479D01*
X916940Y528358D01*
X927097Y515662D02*
X916940D01*
X922018D01*
X924557Y513123D01*
X927097Y510584D01*
Y508044D01*
X879599Y638298D02*
X877059Y640837D01*
X871981D01*
X869442Y638298D01*
Y628141D01*
X871981Y625602D01*
X877059D01*
X879599Y628141D01*
X892295Y625602D02*
Y640837D01*
X884677Y633219D01*
X894834D01*
X871221Y670557D02*
X866143D01*
X868682D01*
Y657862D01*
X866143Y655322D01*
X863603D01*
X861064Y657862D01*
X883917Y655322D02*
Y670557D01*
X876299Y662940D01*
X886456D01*
X414023Y323848D02*
Y311152D01*
X416562Y308612D01*
X421641D01*
X424180Y311152D01*
Y323848D01*
X429258Y308612D02*
X434337D01*
X431798D01*
Y323848D01*
X429258Y321308D01*
X702311Y833188D02*
X697233D01*
X699772D01*
Y820492D01*
X697233Y817952D01*
X694693D01*
X692154Y820492D01*
X717546Y833188D02*
X707389D01*
Y825570D01*
X712467Y828109D01*
X715007D01*
X717546Y825570D01*
Y820492D01*
X715007Y817952D01*
X709928D01*
X707389Y820492D01*
X766572Y490982D02*
Y506217D01*
X774190D01*
X776729Y503678D01*
Y498600D01*
X774190Y496060D01*
X766572D01*
X771650D02*
X776729Y490982D01*
X791964D02*
X781807D01*
X791964Y501139D01*
Y503678D01*
X789425Y506217D01*
X784346D01*
X781807Y503678D01*
X869442Y558292D02*
Y573527D01*
X877059D01*
X879599Y570988D01*
Y565910D01*
X877059Y563370D01*
X869442D01*
X874520D02*
X879599Y558292D01*
X884677D02*
X889755D01*
X887216D01*
Y573527D01*
X884677Y570988D01*
X820925Y455164D02*
X818385Y457703D01*
X813307D01*
X810768Y455164D01*
Y445007D01*
X813307Y442468D01*
X818385D01*
X820925Y445007D01*
X836160Y457703D02*
X831081Y455164D01*
X826003Y450085D01*
Y445007D01*
X828542Y442468D01*
X833621D01*
X836160Y445007D01*
Y447546D01*
X833621Y450085D01*
X826003D01*
X820925Y503424D02*
X818385Y505963D01*
X813307D01*
X810768Y503424D01*
Y493267D01*
X813307Y490728D01*
X818385D01*
X820925Y493267D01*
X836160Y505963D02*
X826003D01*
Y498345D01*
X831081Y500885D01*
X833621D01*
X836160Y498345D01*
Y493267D01*
X833621Y490728D01*
X828542D01*
X826003Y493267D01*
X723389Y503678D02*
X720850Y506217D01*
X715771D01*
X713232Y503678D01*
Y493521D01*
X715771Y490982D01*
X720850D01*
X723389Y493521D01*
X728467Y503678D02*
X731006Y506217D01*
X736085D01*
X738624Y503678D01*
Y501139D01*
X736085Y498600D01*
X733545D01*
X736085D01*
X738624Y496060D01*
Y493521D01*
X736085Y490982D01*
X731006D01*
X728467Y493521D01*
X723389Y570988D02*
X720850Y573527D01*
X715771D01*
X713232Y570988D01*
Y560831D01*
X715771Y558292D01*
X720850D01*
X723389Y560831D01*
X738624Y558292D02*
X728467D01*
X738624Y568449D01*
Y570988D01*
X736085Y573527D01*
X731006D01*
X728467Y570988D01*
X723389Y637028D02*
X720850Y639567D01*
X715771D01*
X713232Y637028D01*
Y626871D01*
X715771Y624332D01*
X720850D01*
X723389Y626871D01*
X728467Y624332D02*
X733545D01*
X731006D01*
Y639567D01*
X728467Y637028D01*
X824992Y387350D02*
Y402585D01*
X832609D01*
X835149Y400046D01*
Y394967D01*
X832609Y392428D01*
X824992D01*
X850384Y387350D02*
X840227D01*
X850384Y397507D01*
Y400046D01*
X847845Y402585D01*
X842766D01*
X840227Y400046D01*
X708152Y387350D02*
Y402585D01*
X715770D01*
X718309Y400046D01*
Y394967D01*
X715770Y392428D01*
X708152D01*
X723387Y387350D02*
X728465D01*
X725926D01*
Y402585D01*
X723387Y400046D01*
D16*
X767080Y643040D02*
X775544Y634576D01*
X767080D02*
X775544Y643040D01*
X767080Y638808D02*
X775544D01*
X771312Y634576D02*
Y643040D01*
M02*
