G04*
G04 #@! TF.GenerationSoftware,Altium Limited,Altium Designer,25.8.1 (18)*
G04*
G04 Layer_Color=8388736*
%FSLAX44Y44*%
%MOMM*%
G71*
G04*
G04 #@! TF.SameCoordinates,71B8C197-EE49-42B5-B996-358C315723FC*
G04*
G04*
G04 #@! TF.FilePolarity,Negative*
G04*
G01*
G75*
%ADD17R,1.9812X0.5588*%
%ADD28R,2.7032X1.2032*%
%ADD29R,2.3032X2.4032*%
%ADD30R,1.6032X1.3032*%
%ADD31R,1.3032X1.6032*%
G04:AMPARAMS|DCode=32|XSize=2.7032mm|YSize=1.2032mm|CornerRadius=0.2266mm|HoleSize=0mm|Usage=FLASHONLY|Rotation=0.000|XOffset=0mm|YOffset=0mm|HoleType=Round|Shape=RoundedRectangle|*
%AMROUNDEDRECTD32*
21,1,2.7032,0.7500,0,0,0.0*
21,1,2.2500,1.2032,0,0,0.0*
1,1,0.4532,1.1250,-0.3750*
1,1,0.4532,-1.1250,-0.3750*
1,1,0.4532,-1.1250,0.3750*
1,1,0.4532,1.1250,0.3750*
%
%ADD32ROUNDEDRECTD32*%
%ADD33R,2.9032X2.8032*%
%ADD34R,2.3032X2.9032*%
%ADD35R,2.3032X2.2032*%
%ADD36R,1.2032X2.7032*%
G04:AMPARAMS|DCode=37|XSize=1.7032mm|YSize=1.7032mm|CornerRadius=0.3266mm|HoleSize=0mm|Usage=FLASHONLY|Rotation=0.000|XOffset=0mm|YOffset=0mm|HoleType=Round|Shape=RoundedRectangle|*
%AMROUNDEDRECTD37*
21,1,1.7032,1.0500,0,0,0.0*
21,1,1.0500,1.7032,0,0,0.0*
1,1,0.6532,0.5250,-0.5250*
1,1,0.6532,-0.5250,-0.5250*
1,1,0.6532,-0.5250,0.5250*
1,1,0.6532,0.5250,0.5250*
%
%ADD37ROUNDEDRECTD37*%
%ADD38C,5.2832*%
%ADD39C,1.5700*%
%ADD40R,1.5700X1.5700*%
%ADD41R,1.7532X1.7532*%
%ADD42R,0.2032X0.2032*%
%ADD43C,1.7532*%
%ADD44C,1.4732*%
G36*
X655340Y535268D02*
X679340D01*
X679473Y535260D01*
X679604Y535233D01*
X679730Y535191D01*
X679849Y535132D01*
X679960Y535058D01*
X680060Y534970D01*
X680148Y534870D01*
X680222Y534759D01*
X680281Y534640D01*
X680323Y534514D01*
X680350Y534383D01*
X680358Y534250D01*
Y518250D01*
X680350Y518117D01*
X680323Y517986D01*
X680281Y517860D01*
X680222Y517741D01*
X680148Y517630D01*
X680060Y517530D01*
X679960Y517442D01*
X679849Y517368D01*
X679730Y517309D01*
X679604Y517267D01*
X679473Y517240D01*
X679340Y517232D01*
X654287D01*
X654154Y517240D01*
X654023Y517267D01*
X651989Y517812D01*
X651862Y517854D01*
X651743Y517913D01*
X649919Y518967D01*
X649808Y519041D01*
X649708Y519128D01*
X648219Y520618D01*
X648131Y520718D01*
X648057Y520829D01*
X647003Y522653D01*
X646974Y522713D01*
X646945Y522772D01*
X646902Y522899D01*
X646357Y524933D01*
X646331Y525064D01*
X646322Y525197D01*
Y527303D01*
X646331Y527436D01*
X646357Y527567D01*
X646902Y529601D01*
X646945Y529728D01*
X647003Y529847D01*
X648057Y531671D01*
X648131Y531782D01*
X648219Y531882D01*
X649708Y533372D01*
X649808Y533459D01*
X649919Y533533D01*
X651743Y534587D01*
X651862Y534646D01*
X651989Y534688D01*
X654023Y535233D01*
X654154Y535260D01*
X654287Y535268D01*
X654287D01*
D01*
X655340Y535268D01*
D02*
G37*
G36*
X478686Y535260D02*
X478817Y535233D01*
X480851Y534688D01*
X480978Y534646D01*
X481097Y534587D01*
X482921Y533533D01*
X483032Y533459D01*
X483132Y533372D01*
X484622Y531882D01*
X484709Y531782D01*
X484783Y531671D01*
X485837Y529847D01*
X485896Y529728D01*
X485938Y529601D01*
X486483Y527567D01*
X486510Y527436D01*
X486518Y527303D01*
Y525197D01*
X486510Y525064D01*
X486483Y524933D01*
X485938Y522899D01*
X485896Y522772D01*
X485837Y522653D01*
X484783Y520829D01*
X484709Y520718D01*
X484622Y520618D01*
X483132Y519128D01*
X483032Y519041D01*
X482921Y518967D01*
X481097Y517913D01*
X480978Y517854D01*
X480851Y517812D01*
X478817Y517267D01*
X478686Y517240D01*
X478553Y517232D01*
X453500D01*
X453367Y517240D01*
X453237Y517267D01*
X453110Y517309D01*
X452991Y517368D01*
X452880Y517442D01*
X452780Y517530D01*
X452692Y517630D01*
X452618Y517741D01*
X452559Y517860D01*
X452517Y517986D01*
X452491Y518117D01*
X452482Y518250D01*
Y534250D01*
X452491Y534383D01*
X452517Y534514D01*
X452559Y534640D01*
X452618Y534759D01*
X452692Y534870D01*
X452780Y534970D01*
X452880Y535058D01*
X452991Y535132D01*
X453110Y535191D01*
X453237Y535233D01*
X453367Y535260D01*
X453500Y535268D01*
X477500D01*
X478553Y535268D01*
X478553D01*
D01*
X478686Y535260D01*
D02*
G37*
G36*
X655340Y509868D02*
X679340D01*
X679473Y509860D01*
X679604Y509833D01*
X679730Y509791D01*
X679849Y509732D01*
X679960Y509658D01*
X680060Y509570D01*
X680148Y509470D01*
X680222Y509359D01*
X680281Y509240D01*
X680323Y509114D01*
X680350Y508983D01*
X680358Y508850D01*
Y492850D01*
X680350Y492717D01*
X680323Y492587D01*
X680281Y492460D01*
X680222Y492341D01*
X680148Y492230D01*
X680060Y492130D01*
X679960Y492042D01*
X679849Y491968D01*
X679730Y491909D01*
X679604Y491866D01*
X679473Y491841D01*
X679340Y491832D01*
X654287D01*
X654154Y491841D01*
X654023Y491866D01*
X651989Y492412D01*
X651862Y492454D01*
X651743Y492513D01*
X649919Y493567D01*
X649808Y493641D01*
X649708Y493728D01*
X648219Y495218D01*
X648131Y495318D01*
X648057Y495429D01*
X647003Y497253D01*
X646974Y497313D01*
X646945Y497373D01*
X646902Y497499D01*
X646357Y499533D01*
X646331Y499664D01*
X646322Y499797D01*
Y501903D01*
X646331Y502036D01*
X646357Y502167D01*
X646902Y504201D01*
X646945Y504328D01*
X647003Y504447D01*
X648057Y506271D01*
X648131Y506382D01*
X648219Y506482D01*
X649708Y507972D01*
X649808Y508059D01*
X649919Y508133D01*
X651743Y509187D01*
X651862Y509245D01*
X651989Y509288D01*
X654023Y509833D01*
X654154Y509860D01*
X654287Y509868D01*
X654287D01*
D01*
X655340Y509868D01*
D02*
G37*
G36*
X478686Y509860D02*
X478817Y509833D01*
X480851Y509288D01*
X480978Y509245D01*
X481097Y509187D01*
X482921Y508133D01*
X483032Y508059D01*
X483132Y507972D01*
X484622Y506482D01*
X484709Y506382D01*
X484783Y506271D01*
X485837Y504447D01*
X485896Y504328D01*
X485938Y504201D01*
X486483Y502167D01*
X486510Y502036D01*
X486518Y501903D01*
Y499797D01*
X486510Y499664D01*
X486483Y499533D01*
X485938Y497499D01*
X485896Y497373D01*
X485837Y497253D01*
X484783Y495429D01*
X484709Y495318D01*
X484622Y495218D01*
X483132Y493728D01*
X483032Y493641D01*
X482921Y493567D01*
X481097Y492513D01*
X480978Y492454D01*
X480851Y492412D01*
X478817Y491866D01*
X478686Y491841D01*
X478553Y491832D01*
X453500D01*
X453367Y491841D01*
X453237Y491866D01*
X453110Y491909D01*
X452991Y491968D01*
X452880Y492042D01*
X452780Y492130D01*
X452692Y492230D01*
X452618Y492341D01*
X452559Y492460D01*
X452517Y492587D01*
X452491Y492717D01*
X452482Y492850D01*
Y508850D01*
X452491Y508983D01*
X452517Y509114D01*
X452559Y509240D01*
X452618Y509359D01*
X452692Y509470D01*
X452780Y509570D01*
X452880Y509658D01*
X452991Y509732D01*
X453110Y509791D01*
X453237Y509833D01*
X453367Y509860D01*
X453500Y509868D01*
X477500D01*
X478553Y509868D01*
X478553D01*
D01*
X478686Y509860D01*
D02*
G37*
G36*
X655340Y484468D02*
X679340D01*
X679473Y484459D01*
X679604Y484434D01*
X679730Y484391D01*
X679849Y484332D01*
X679960Y484258D01*
X680060Y484170D01*
X680148Y484070D01*
X680222Y483959D01*
X680281Y483840D01*
X680323Y483713D01*
X680350Y483583D01*
X680358Y483450D01*
Y467450D01*
X680350Y467317D01*
X680323Y467187D01*
X680281Y467060D01*
X680222Y466941D01*
X680148Y466830D01*
X680060Y466730D01*
X679960Y466642D01*
X679849Y466568D01*
X679730Y466509D01*
X679604Y466466D01*
X679473Y466441D01*
X679340Y466432D01*
X654287D01*
X654154Y466441D01*
X654023Y466466D01*
X651989Y467012D01*
X651862Y467054D01*
X651743Y467113D01*
X649919Y468167D01*
X649808Y468241D01*
X649708Y468328D01*
X648219Y469818D01*
X648131Y469918D01*
X648057Y470029D01*
X647003Y471853D01*
X646974Y471913D01*
X646945Y471973D01*
X646902Y472099D01*
X646357Y474133D01*
X646331Y474264D01*
X646322Y474397D01*
Y476503D01*
X646331Y476636D01*
X646357Y476767D01*
X646902Y478801D01*
X646945Y478927D01*
X647003Y479047D01*
X648057Y480871D01*
X648131Y480982D01*
X648219Y481082D01*
X649708Y482572D01*
X649808Y482659D01*
X649919Y482733D01*
X651743Y483787D01*
X651862Y483845D01*
X651989Y483888D01*
X654023Y484434D01*
X654154Y484459D01*
X654287Y484468D01*
X654287D01*
D01*
X655340Y484468D01*
D02*
G37*
G36*
X478686Y484459D02*
X478817Y484434D01*
X480851Y483888D01*
X480978Y483845D01*
X481097Y483787D01*
X482921Y482733D01*
X483032Y482659D01*
X483132Y482572D01*
X484622Y481082D01*
X484709Y480982D01*
X484783Y480871D01*
X485837Y479047D01*
X485896Y478927D01*
X485938Y478801D01*
X486483Y476767D01*
X486510Y476636D01*
X486518Y476503D01*
Y474397D01*
X486510Y474264D01*
X486483Y474133D01*
X485938Y472099D01*
X485896Y471973D01*
X485837Y471853D01*
X484783Y470029D01*
X484709Y469918D01*
X484622Y469818D01*
X483132Y468328D01*
X483032Y468241D01*
X482921Y468167D01*
X481097Y467113D01*
X480978Y467054D01*
X480851Y467012D01*
X478817Y466466D01*
X478686Y466441D01*
X478553Y466432D01*
X453500D01*
X453367Y466441D01*
X453237Y466466D01*
X453110Y466509D01*
X452991Y466568D01*
X452880Y466642D01*
X452780Y466730D01*
X452692Y466830D01*
X452618Y466941D01*
X452559Y467060D01*
X452517Y467187D01*
X452491Y467317D01*
X452482Y467450D01*
Y483450D01*
X452491Y483583D01*
X452517Y483713D01*
X452559Y483840D01*
X452618Y483959D01*
X452692Y484070D01*
X452780Y484170D01*
X452880Y484258D01*
X452991Y484332D01*
X453110Y484391D01*
X453237Y484434D01*
X453367Y484459D01*
X453500Y484468D01*
X477500D01*
X478553Y484468D01*
X478553D01*
D01*
X478686Y484459D01*
D02*
G37*
G36*
X655340Y459068D02*
X679340D01*
X679473Y459059D01*
X679604Y459034D01*
X679730Y458991D01*
X679849Y458932D01*
X679960Y458858D01*
X680060Y458770D01*
X680148Y458670D01*
X680222Y458559D01*
X680281Y458440D01*
X680323Y458313D01*
X680350Y458183D01*
X680358Y458050D01*
Y442050D01*
X680350Y441917D01*
X680323Y441786D01*
X680281Y441660D01*
X680222Y441541D01*
X680148Y441430D01*
X680060Y441330D01*
X679960Y441242D01*
X679849Y441168D01*
X679730Y441109D01*
X679604Y441067D01*
X679473Y441040D01*
X679340Y441032D01*
X654287D01*
X654154Y441040D01*
X654023Y441067D01*
X651989Y441612D01*
X651862Y441655D01*
X651743Y441713D01*
X649919Y442767D01*
X649808Y442841D01*
X649708Y442928D01*
X648219Y444418D01*
X648131Y444518D01*
X648057Y444629D01*
X647003Y446453D01*
X646974Y446513D01*
X646945Y446572D01*
X646902Y446699D01*
X646357Y448733D01*
X646331Y448864D01*
X646322Y448997D01*
Y451103D01*
X646331Y451236D01*
X646357Y451367D01*
X646902Y453401D01*
X646945Y453527D01*
X647003Y453647D01*
X648057Y455471D01*
X648131Y455582D01*
X648219Y455682D01*
X649708Y457172D01*
X649808Y457259D01*
X649919Y457333D01*
X651743Y458387D01*
X651862Y458446D01*
X651989Y458488D01*
X654023Y459034D01*
X654154Y459059D01*
X654287Y459068D01*
X654287D01*
D01*
X655340Y459068D01*
D02*
G37*
G36*
X478686Y459059D02*
X478817Y459034D01*
X480851Y458488D01*
X480978Y458446D01*
X481097Y458387D01*
X482921Y457333D01*
X483032Y457259D01*
X483132Y457172D01*
X484622Y455682D01*
X484709Y455582D01*
X484783Y455471D01*
X485837Y453647D01*
X485896Y453527D01*
X485938Y453401D01*
X486483Y451367D01*
X486510Y451236D01*
X486518Y451103D01*
Y448997D01*
X486510Y448864D01*
X486483Y448733D01*
X485938Y446699D01*
X485896Y446572D01*
X485837Y446453D01*
X484783Y444629D01*
X484709Y444518D01*
X484622Y444418D01*
X483132Y442928D01*
X483032Y442841D01*
X482921Y442767D01*
X481097Y441713D01*
X480978Y441655D01*
X480851Y441612D01*
X478817Y441067D01*
X478686Y441040D01*
X478553Y441032D01*
X453500D01*
X453367Y441040D01*
X453237Y441067D01*
X453110Y441109D01*
X452991Y441168D01*
X452880Y441242D01*
X452780Y441330D01*
X452692Y441430D01*
X452618Y441541D01*
X452559Y441660D01*
X452517Y441786D01*
X452491Y441917D01*
X452482Y442050D01*
Y458050D01*
X452491Y458183D01*
X452517Y458313D01*
X452559Y458440D01*
X452618Y458559D01*
X452692Y458670D01*
X452780Y458770D01*
X452880Y458858D01*
X452991Y458932D01*
X453110Y458991D01*
X453237Y459034D01*
X453367Y459059D01*
X453500Y459068D01*
X477500D01*
X478553Y459068D01*
X478553D01*
D01*
X478686Y459059D01*
D02*
G37*
G36*
X655340Y433668D02*
X679340D01*
X679473Y433660D01*
X679604Y433633D01*
X679730Y433591D01*
X679849Y433532D01*
X679960Y433458D01*
X680060Y433370D01*
X680148Y433270D01*
X680222Y433159D01*
X680281Y433040D01*
X680323Y432914D01*
X680350Y432783D01*
X680358Y432650D01*
Y416650D01*
X680350Y416517D01*
X680323Y416386D01*
X680281Y416260D01*
X680222Y416141D01*
X680148Y416030D01*
X680060Y415930D01*
X679960Y415842D01*
X679849Y415768D01*
X679730Y415709D01*
X679604Y415667D01*
X679473Y415640D01*
X679340Y415632D01*
X654287D01*
X654154Y415640D01*
X654023Y415667D01*
X651989Y416212D01*
X651862Y416255D01*
X651743Y416313D01*
X649919Y417367D01*
X649808Y417441D01*
X649708Y417528D01*
X648219Y419018D01*
X648131Y419118D01*
X648057Y419229D01*
X647003Y421053D01*
X646974Y421113D01*
X646945Y421172D01*
X646902Y421299D01*
X646357Y423333D01*
X646331Y423464D01*
X646322Y423597D01*
Y425703D01*
X646331Y425836D01*
X646357Y425967D01*
X646902Y428001D01*
X646945Y428128D01*
X647003Y428247D01*
X648057Y430071D01*
X648131Y430182D01*
X648219Y430282D01*
X649708Y431772D01*
X649808Y431859D01*
X649919Y431933D01*
X651743Y432987D01*
X651862Y433046D01*
X651989Y433088D01*
X654023Y433633D01*
X654154Y433660D01*
X654287Y433668D01*
X654287D01*
D01*
X655340Y433668D01*
D02*
G37*
G36*
X478686Y433660D02*
X478817Y433633D01*
X480851Y433088D01*
X480978Y433046D01*
X481097Y432987D01*
X482921Y431933D01*
X483032Y431859D01*
X483132Y431772D01*
X484622Y430282D01*
X484709Y430182D01*
X484783Y430071D01*
X485837Y428247D01*
X485896Y428128D01*
X485938Y428001D01*
X486483Y425967D01*
X486510Y425836D01*
X486518Y425703D01*
Y423597D01*
X486510Y423464D01*
X486483Y423333D01*
X485938Y421299D01*
X485896Y421172D01*
X485837Y421053D01*
X484783Y419229D01*
X484709Y419118D01*
X484622Y419018D01*
X483132Y417528D01*
X483032Y417441D01*
X482921Y417367D01*
X481097Y416313D01*
X480978Y416255D01*
X480851Y416212D01*
X478817Y415667D01*
X478686Y415640D01*
X478553Y415632D01*
X453500D01*
X453367Y415640D01*
X453237Y415667D01*
X453110Y415709D01*
X452991Y415768D01*
X452880Y415842D01*
X452780Y415930D01*
X452692Y416030D01*
X452618Y416141D01*
X452559Y416260D01*
X452517Y416386D01*
X452491Y416517D01*
X452482Y416650D01*
Y432650D01*
X452491Y432783D01*
X452517Y432914D01*
X452559Y433040D01*
X452618Y433159D01*
X452692Y433270D01*
X452780Y433370D01*
X452880Y433458D01*
X452991Y433532D01*
X453110Y433591D01*
X453237Y433633D01*
X453367Y433660D01*
X453500Y433668D01*
X477500D01*
X478553Y433668D01*
X478553D01*
D01*
X478686Y433660D01*
D02*
G37*
G36*
X655340Y408268D02*
X679340D01*
X679473Y408260D01*
X679604Y408233D01*
X679730Y408191D01*
X679849Y408132D01*
X679960Y408058D01*
X680060Y407970D01*
X680148Y407870D01*
X680222Y407759D01*
X680281Y407640D01*
X680323Y407514D01*
X680350Y407383D01*
X680358Y407250D01*
Y391250D01*
X680350Y391117D01*
X680323Y390987D01*
X680281Y390860D01*
X680222Y390741D01*
X680148Y390630D01*
X680060Y390530D01*
X679960Y390442D01*
X679849Y390368D01*
X679730Y390309D01*
X679604Y390266D01*
X679473Y390241D01*
X679340Y390232D01*
X654287D01*
X654154Y390241D01*
X654023Y390266D01*
X651989Y390812D01*
X651862Y390854D01*
X651743Y390913D01*
X649919Y391967D01*
X649808Y392041D01*
X649708Y392128D01*
X648219Y393618D01*
X648131Y393718D01*
X648057Y393829D01*
X647003Y395653D01*
X646974Y395713D01*
X646945Y395773D01*
X646902Y395899D01*
X646357Y397933D01*
X646331Y398064D01*
X646322Y398197D01*
Y400303D01*
X646331Y400436D01*
X646357Y400567D01*
X646902Y402601D01*
X646945Y402728D01*
X647003Y402847D01*
X648057Y404671D01*
X648131Y404782D01*
X648219Y404882D01*
X649708Y406372D01*
X649808Y406459D01*
X649919Y406533D01*
X651743Y407587D01*
X651862Y407645D01*
X651989Y407688D01*
X654023Y408233D01*
X654154Y408260D01*
X654287Y408268D01*
X654287D01*
D01*
X655340Y408268D01*
D02*
G37*
G36*
X478686Y408260D02*
X478817Y408233D01*
X480851Y407688D01*
X480978Y407645D01*
X481097Y407587D01*
X482921Y406533D01*
X483032Y406459D01*
X483132Y406372D01*
X484622Y404882D01*
X484709Y404782D01*
X484783Y404671D01*
X485837Y402847D01*
X485896Y402728D01*
X485938Y402601D01*
X486483Y400567D01*
X486510Y400436D01*
X486518Y400303D01*
Y398197D01*
X486510Y398064D01*
X486483Y397933D01*
X485938Y395899D01*
X485896Y395773D01*
X485837Y395653D01*
X484783Y393829D01*
X484709Y393718D01*
X484622Y393618D01*
X483132Y392128D01*
X483032Y392041D01*
X482921Y391967D01*
X481097Y390913D01*
X480978Y390854D01*
X480851Y390812D01*
X478817Y390266D01*
X478686Y390241D01*
X478553Y390232D01*
X453500D01*
X453367Y390241D01*
X453237Y390266D01*
X453110Y390309D01*
X452991Y390368D01*
X452880Y390442D01*
X452780Y390530D01*
X452692Y390630D01*
X452618Y390741D01*
X452559Y390860D01*
X452517Y390987D01*
X452491Y391117D01*
X452482Y391250D01*
Y407250D01*
X452491Y407383D01*
X452517Y407514D01*
X452559Y407640D01*
X452618Y407759D01*
X452692Y407870D01*
X452780Y407970D01*
X452880Y408058D01*
X452991Y408132D01*
X453110Y408191D01*
X453237Y408233D01*
X453367Y408260D01*
X453500Y408268D01*
X477500D01*
X478553Y408268D01*
X478553D01*
D01*
X478686Y408260D01*
D02*
G37*
G36*
X655340Y382868D02*
X679340D01*
X679473Y382859D01*
X679604Y382834D01*
X679730Y382791D01*
X679849Y382732D01*
X679960Y382658D01*
X680060Y382570D01*
X680148Y382470D01*
X680222Y382359D01*
X680281Y382240D01*
X680323Y382113D01*
X680350Y381983D01*
X680358Y381850D01*
Y365850D01*
X680350Y365717D01*
X680323Y365587D01*
X680281Y365460D01*
X680222Y365341D01*
X680148Y365230D01*
X680060Y365130D01*
X679960Y365042D01*
X679849Y364968D01*
X679730Y364909D01*
X679604Y364866D01*
X679473Y364841D01*
X679340Y364832D01*
X654287D01*
X654154Y364841D01*
X654023Y364866D01*
X651989Y365412D01*
X651862Y365454D01*
X651743Y365513D01*
X649919Y366567D01*
X649808Y366641D01*
X649708Y366728D01*
X648219Y368218D01*
X648131Y368318D01*
X648057Y368429D01*
X647003Y370253D01*
X646974Y370313D01*
X646945Y370373D01*
X646902Y370499D01*
X646357Y372533D01*
X646331Y372664D01*
X646322Y372797D01*
Y374903D01*
X646331Y375036D01*
X646357Y375167D01*
X646902Y377201D01*
X646945Y377327D01*
X647003Y377447D01*
X648057Y379271D01*
X648131Y379382D01*
X648219Y379482D01*
X649708Y380972D01*
X649808Y381059D01*
X649919Y381133D01*
X651743Y382187D01*
X651862Y382245D01*
X651989Y382288D01*
X654023Y382834D01*
X654154Y382859D01*
X654287Y382868D01*
X654287D01*
D01*
X655340Y382868D01*
D02*
G37*
G36*
X478686Y382859D02*
X478817Y382834D01*
X480851Y382288D01*
X480978Y382245D01*
X481097Y382187D01*
X482921Y381133D01*
X483032Y381059D01*
X483132Y380972D01*
X484622Y379482D01*
X484709Y379382D01*
X484783Y379271D01*
X485837Y377447D01*
X485896Y377327D01*
X485938Y377201D01*
X486483Y375167D01*
X486510Y375036D01*
X486518Y374903D01*
Y372797D01*
X486510Y372664D01*
X486483Y372533D01*
X485938Y370499D01*
X485896Y370373D01*
X485837Y370253D01*
X484783Y368429D01*
X484709Y368318D01*
X484622Y368218D01*
X483132Y366728D01*
X483032Y366641D01*
X482921Y366567D01*
X481097Y365513D01*
X480978Y365454D01*
X480851Y365412D01*
X478817Y364866D01*
X478686Y364841D01*
X478553Y364832D01*
X453500D01*
X453367Y364841D01*
X453237Y364866D01*
X453110Y364909D01*
X452991Y364968D01*
X452880Y365042D01*
X452780Y365130D01*
X452692Y365230D01*
X452618Y365341D01*
X452559Y365460D01*
X452517Y365587D01*
X452491Y365717D01*
X452482Y365850D01*
Y381850D01*
X452491Y381983D01*
X452517Y382113D01*
X452559Y382240D01*
X452618Y382359D01*
X452692Y382470D01*
X452780Y382570D01*
X452880Y382658D01*
X452991Y382732D01*
X453110Y382791D01*
X453237Y382834D01*
X453367Y382859D01*
X453500Y382868D01*
X477500D01*
X478553Y382868D01*
X478553D01*
D01*
X478686Y382859D01*
D02*
G37*
G36*
X655340Y357468D02*
X679340D01*
X679473Y357459D01*
X679604Y357434D01*
X679730Y357391D01*
X679849Y357332D01*
X679960Y357258D01*
X680060Y357170D01*
X680148Y357070D01*
X680222Y356959D01*
X680281Y356840D01*
X680323Y356713D01*
X680350Y356583D01*
X680358Y356450D01*
Y340450D01*
X680350Y340317D01*
X680323Y340187D01*
X680281Y340060D01*
X680222Y339941D01*
X680148Y339830D01*
X680060Y339730D01*
X679960Y339642D01*
X679849Y339568D01*
X679730Y339509D01*
X679604Y339467D01*
X679473Y339440D01*
X679340Y339432D01*
X654287D01*
X654154Y339440D01*
X654023Y339467D01*
X651989Y340012D01*
X651862Y340055D01*
X651743Y340113D01*
X649919Y341167D01*
X649808Y341241D01*
X649708Y341328D01*
X648219Y342818D01*
X648131Y342918D01*
X648057Y343029D01*
X647003Y344853D01*
X646974Y344913D01*
X646945Y344972D01*
X646902Y345099D01*
X646357Y347133D01*
X646331Y347264D01*
X646322Y347397D01*
Y349503D01*
X646331Y349636D01*
X646357Y349767D01*
X646902Y351801D01*
X646945Y351927D01*
X647003Y352047D01*
X648057Y353871D01*
X648131Y353982D01*
X648219Y354082D01*
X649708Y355572D01*
X649808Y355659D01*
X649919Y355733D01*
X651743Y356787D01*
X651862Y356846D01*
X651989Y356888D01*
X654023Y357434D01*
X654154Y357459D01*
X654287Y357468D01*
X654287D01*
D01*
X655340Y357468D01*
D02*
G37*
G36*
X478686Y357459D02*
X478817Y357434D01*
X480851Y356888D01*
X480978Y356846D01*
X481097Y356787D01*
X482921Y355733D01*
X483032Y355659D01*
X483132Y355572D01*
X484622Y354082D01*
X484709Y353982D01*
X484783Y353871D01*
X485837Y352047D01*
X485896Y351927D01*
X485938Y351801D01*
X486483Y349767D01*
X486510Y349636D01*
X486518Y349503D01*
Y347397D01*
X486510Y347264D01*
X486483Y347133D01*
X485938Y345099D01*
X485896Y344972D01*
X485837Y344853D01*
X484783Y343029D01*
X484709Y342918D01*
X484622Y342818D01*
X483132Y341328D01*
X483032Y341241D01*
X482921Y341167D01*
X481097Y340113D01*
X480978Y340055D01*
X480851Y340012D01*
X478817Y339467D01*
X478686Y339440D01*
X478553Y339432D01*
X453500D01*
X453367Y339440D01*
X453237Y339467D01*
X453110Y339509D01*
X452991Y339568D01*
X452880Y339642D01*
X452780Y339730D01*
X452692Y339830D01*
X452618Y339941D01*
X452559Y340060D01*
X452517Y340187D01*
X452491Y340317D01*
X452482Y340450D01*
Y356450D01*
X452491Y356583D01*
X452517Y356713D01*
X452559Y356840D01*
X452618Y356959D01*
X452692Y357070D01*
X452780Y357170D01*
X452880Y357258D01*
X452991Y357332D01*
X453110Y357391D01*
X453237Y357434D01*
X453367Y357459D01*
X453500Y357468D01*
X477500D01*
X478553Y357468D01*
X478553D01*
D01*
X478686Y357459D01*
D02*
G37*
G36*
X655340Y332068D02*
X679340D01*
X679473Y332060D01*
X679604Y332034D01*
X679730Y331991D01*
X679849Y331932D01*
X679960Y331858D01*
X680060Y331770D01*
X680148Y331670D01*
X680222Y331559D01*
X680281Y331440D01*
X680323Y331314D01*
X680350Y331183D01*
X680358Y331050D01*
Y315050D01*
X680350Y314917D01*
X680323Y314786D01*
X680281Y314660D01*
X680222Y314541D01*
X680148Y314430D01*
X680060Y314330D01*
X679960Y314242D01*
X679849Y314168D01*
X679730Y314109D01*
X679604Y314067D01*
X679473Y314041D01*
X679340Y314032D01*
X654287D01*
X654154Y314041D01*
X654023Y314067D01*
X651989Y314612D01*
X651862Y314655D01*
X651743Y314713D01*
X649919Y315767D01*
X649808Y315841D01*
X649708Y315928D01*
X648219Y317418D01*
X648131Y317518D01*
X648057Y317629D01*
X647003Y319453D01*
X646974Y319513D01*
X646945Y319573D01*
X646902Y319699D01*
X646357Y321733D01*
X646331Y321864D01*
X646322Y321997D01*
Y324103D01*
X646331Y324236D01*
X646357Y324367D01*
X646902Y326401D01*
X646945Y326527D01*
X647003Y326647D01*
X648057Y328471D01*
X648131Y328582D01*
X648219Y328682D01*
X649708Y330172D01*
X649808Y330259D01*
X649919Y330333D01*
X651743Y331387D01*
X651862Y331446D01*
X651989Y331488D01*
X654023Y332034D01*
X654154Y332060D01*
X654287Y332068D01*
X654287D01*
D01*
X655340Y332068D01*
D02*
G37*
G36*
X478686Y332060D02*
X478817Y332034D01*
X480851Y331488D01*
X480978Y331446D01*
X481097Y331387D01*
X482921Y330333D01*
X483032Y330259D01*
X483132Y330172D01*
X484622Y328682D01*
X484709Y328582D01*
X484783Y328471D01*
X485837Y326647D01*
X485896Y326527D01*
X485938Y326401D01*
X486483Y324367D01*
X486510Y324236D01*
X486518Y324103D01*
Y321997D01*
X486510Y321864D01*
X486483Y321733D01*
X485938Y319699D01*
X485896Y319573D01*
X485837Y319453D01*
X484783Y317629D01*
X484709Y317518D01*
X484622Y317418D01*
X483132Y315928D01*
X483032Y315841D01*
X482921Y315767D01*
X481097Y314713D01*
X480978Y314655D01*
X480851Y314612D01*
X478817Y314067D01*
X478686Y314041D01*
X478553Y314032D01*
X453500D01*
X453367Y314041D01*
X453237Y314067D01*
X453110Y314109D01*
X452991Y314168D01*
X452880Y314242D01*
X452780Y314330D01*
X452692Y314430D01*
X452618Y314541D01*
X452559Y314660D01*
X452517Y314786D01*
X452491Y314917D01*
X452482Y315050D01*
Y331050D01*
X452491Y331183D01*
X452517Y331314D01*
X452559Y331440D01*
X452618Y331559D01*
X452692Y331670D01*
X452780Y331770D01*
X452880Y331858D01*
X452991Y331932D01*
X453110Y331991D01*
X453237Y332034D01*
X453367Y332060D01*
X453500Y332068D01*
X477500D01*
X478553Y332068D01*
X478553D01*
D01*
X478686Y332060D01*
D02*
G37*
G36*
X593006Y334360D02*
X593137Y334333D01*
X595171Y333788D01*
X595298Y333745D01*
X595417Y333687D01*
X597241Y332633D01*
X597352Y332559D01*
X597452Y332472D01*
X598941Y330982D01*
X599029Y330882D01*
X599103Y330771D01*
X600157Y328947D01*
X600215Y328828D01*
X600258Y328701D01*
X600803Y326667D01*
X600830Y326536D01*
X600838Y326403D01*
Y325350D01*
Y301350D01*
X600830Y301217D01*
X600803Y301087D01*
X600761Y300960D01*
X600702Y300841D01*
X600628Y300730D01*
X600540Y300630D01*
X600440Y300542D01*
X600329Y300468D01*
X600210Y300409D01*
X600084Y300366D01*
X599953Y300340D01*
X599820Y300332D01*
X583820D01*
X583687Y300340D01*
X583557Y300366D01*
X583430Y300409D01*
X583311Y300468D01*
X583200Y300542D01*
X583100Y300630D01*
X583012Y300730D01*
X582938Y300841D01*
X582879Y300960D01*
X582836Y301087D01*
X582811Y301217D01*
X582802Y301350D01*
Y325350D01*
X582802Y326403D01*
Y326403D01*
D01*
X582811Y326536D01*
X582836Y326667D01*
X583382Y328701D01*
X583424Y328828D01*
X583454Y328887D01*
X583483Y328947D01*
X584537Y330771D01*
X584611Y330882D01*
X584698Y330982D01*
X586188Y332472D01*
X586288Y332559D01*
X586399Y332633D01*
X588223Y333687D01*
X588342Y333745D01*
X588469Y333788D01*
X590503Y334333D01*
X590634Y334360D01*
X590767Y334368D01*
X592873D01*
X593006Y334360D01*
D02*
G37*
G36*
X567606D02*
X567737Y334333D01*
X569771Y333788D01*
X569897Y333745D01*
X570017Y333687D01*
X571841Y332633D01*
X571952Y332559D01*
X572052Y332472D01*
X573541Y330982D01*
X573629Y330882D01*
X573703Y330771D01*
X574757Y328947D01*
X574815Y328828D01*
X574858Y328701D01*
X575404Y326667D01*
X575429Y326536D01*
X575438Y326403D01*
Y325350D01*
Y301350D01*
X575429Y301217D01*
X575404Y301087D01*
X575361Y300960D01*
X575302Y300841D01*
X575228Y300730D01*
X575140Y300630D01*
X575040Y300542D01*
X574929Y300468D01*
X574810Y300409D01*
X574683Y300366D01*
X574553Y300340D01*
X574420Y300332D01*
X558420D01*
X558287Y300340D01*
X558157Y300366D01*
X558030Y300409D01*
X557911Y300468D01*
X557800Y300542D01*
X557700Y300630D01*
X557612Y300730D01*
X557538Y300841D01*
X557479Y300960D01*
X557436Y301087D01*
X557411Y301217D01*
X557402Y301350D01*
Y325350D01*
X557402Y326403D01*
Y326403D01*
D01*
X557411Y326536D01*
X557436Y326667D01*
X557982Y328701D01*
X558024Y328828D01*
X558054Y328887D01*
X558083Y328947D01*
X559137Y330771D01*
X559211Y330882D01*
X559298Y330982D01*
X560788Y332472D01*
X560888Y332559D01*
X560999Y332633D01*
X562823Y333687D01*
X562942Y333745D01*
X563069Y333788D01*
X565103Y334333D01*
X565234Y334360D01*
X565367Y334368D01*
X567473D01*
X567606Y334360D01*
D02*
G37*
G36*
X542206D02*
X542337Y334333D01*
X544371Y333788D01*
X544497Y333745D01*
X544617Y333687D01*
X546441Y332633D01*
X546552Y332559D01*
X546652Y332472D01*
X548142Y330982D01*
X548229Y330882D01*
X548303Y330771D01*
X549356Y328947D01*
X549415Y328828D01*
X549458Y328701D01*
X550004Y326667D01*
X550029Y326536D01*
X550038Y326403D01*
Y325350D01*
Y301350D01*
X550029Y301217D01*
X550004Y301087D01*
X549961Y300960D01*
X549902Y300841D01*
X549828Y300730D01*
X549740Y300630D01*
X549640Y300542D01*
X549529Y300468D01*
X549410Y300409D01*
X549283Y300366D01*
X549153Y300340D01*
X549020Y300332D01*
X533020D01*
X532887Y300340D01*
X532757Y300366D01*
X532630Y300409D01*
X532511Y300468D01*
X532400Y300542D01*
X532300Y300630D01*
X532212Y300730D01*
X532138Y300841D01*
X532079Y300960D01*
X532037Y301087D01*
X532010Y301217D01*
X532002Y301350D01*
Y325350D01*
X532002Y326403D01*
Y326403D01*
D01*
X532010Y326536D01*
X532037Y326667D01*
X532582Y328701D01*
X532625Y328828D01*
X532654Y328887D01*
X532683Y328947D01*
X533737Y330771D01*
X533811Y330882D01*
X533898Y330982D01*
X535388Y332472D01*
X535488Y332559D01*
X535599Y332633D01*
X537423Y333687D01*
X537542Y333745D01*
X537668Y333788D01*
X539703Y334333D01*
X539834Y334360D01*
X539967Y334368D01*
X542073D01*
X542206Y334360D01*
D02*
G37*
G36*
X655340Y814668D02*
X679340D01*
X679473Y814660D01*
X679604Y814633D01*
X679730Y814591D01*
X679849Y814532D01*
X679960Y814458D01*
X680060Y814370D01*
X680148Y814270D01*
X680222Y814159D01*
X680281Y814040D01*
X680323Y813913D01*
X680350Y813783D01*
X680358Y813650D01*
Y797650D01*
X680350Y797517D01*
X680323Y797386D01*
X680281Y797260D01*
X680222Y797141D01*
X680148Y797030D01*
X680060Y796930D01*
X679960Y796842D01*
X679849Y796768D01*
X679730Y796709D01*
X679604Y796666D01*
X679473Y796640D01*
X679340Y796632D01*
X654287D01*
X654154Y796640D01*
X654023Y796666D01*
X651989Y797212D01*
X651862Y797254D01*
X651743Y797313D01*
X649919Y798367D01*
X649808Y798441D01*
X649708Y798528D01*
X648219Y800018D01*
X648131Y800118D01*
X648057Y800229D01*
X647003Y802053D01*
X646974Y802113D01*
X646945Y802172D01*
X646902Y802299D01*
X646357Y804333D01*
X646331Y804464D01*
X646322Y804597D01*
Y806703D01*
X646331Y806836D01*
X646357Y806967D01*
X646902Y809001D01*
X646945Y809128D01*
X647003Y809247D01*
X648057Y811071D01*
X648131Y811182D01*
X648219Y811282D01*
X649708Y812772D01*
X649808Y812859D01*
X649919Y812933D01*
X651743Y813987D01*
X651862Y814045D01*
X651989Y814088D01*
X654023Y814633D01*
X654154Y814660D01*
X654287Y814668D01*
X654287D01*
D01*
X655340Y814668D01*
D02*
G37*
G36*
X478686Y814660D02*
X478817Y814633D01*
X480851Y814088D01*
X480978Y814045D01*
X481097Y813987D01*
X482921Y812933D01*
X483032Y812859D01*
X483132Y812772D01*
X484622Y811282D01*
X484709Y811182D01*
X484783Y811071D01*
X485837Y809247D01*
X485896Y809128D01*
X485938Y809001D01*
X486483Y806967D01*
X486510Y806836D01*
X486518Y806703D01*
Y804597D01*
X486510Y804464D01*
X486483Y804333D01*
X485938Y802299D01*
X485896Y802172D01*
X485837Y802053D01*
X484783Y800229D01*
X484709Y800118D01*
X484622Y800018D01*
X483132Y798528D01*
X483032Y798441D01*
X482921Y798367D01*
X481097Y797313D01*
X480978Y797254D01*
X480851Y797212D01*
X478817Y796666D01*
X478686Y796640D01*
X478553Y796632D01*
X453500D01*
X453367Y796640D01*
X453237Y796666D01*
X453110Y796709D01*
X452991Y796768D01*
X452880Y796842D01*
X452780Y796930D01*
X452692Y797030D01*
X452618Y797141D01*
X452559Y797260D01*
X452517Y797386D01*
X452491Y797517D01*
X452482Y797650D01*
Y813650D01*
X452491Y813783D01*
X452517Y813913D01*
X452559Y814040D01*
X452618Y814159D01*
X452692Y814270D01*
X452780Y814370D01*
X452880Y814458D01*
X452991Y814532D01*
X453110Y814591D01*
X453237Y814633D01*
X453367Y814660D01*
X453500Y814668D01*
X477500D01*
X478553Y814668D01*
X478553D01*
D01*
X478686Y814660D01*
D02*
G37*
G36*
X655340Y789268D02*
X679340D01*
X679473Y789259D01*
X679604Y789233D01*
X679730Y789191D01*
X679849Y789132D01*
X679960Y789058D01*
X680060Y788970D01*
X680148Y788870D01*
X680222Y788759D01*
X680281Y788640D01*
X680323Y788513D01*
X680350Y788383D01*
X680358Y788250D01*
Y772250D01*
X680350Y772117D01*
X680323Y771986D01*
X680281Y771860D01*
X680222Y771741D01*
X680148Y771630D01*
X680060Y771530D01*
X679960Y771442D01*
X679849Y771368D01*
X679730Y771309D01*
X679604Y771266D01*
X679473Y771240D01*
X679340Y771232D01*
X654287D01*
X654154Y771240D01*
X654023Y771266D01*
X651989Y771812D01*
X651862Y771854D01*
X651743Y771913D01*
X649919Y772967D01*
X649808Y773041D01*
X649708Y773128D01*
X648219Y774618D01*
X648131Y774718D01*
X648057Y774829D01*
X647003Y776653D01*
X646974Y776713D01*
X646945Y776773D01*
X646902Y776899D01*
X646357Y778933D01*
X646331Y779064D01*
X646322Y779197D01*
Y781303D01*
X646331Y781436D01*
X646357Y781567D01*
X646902Y783601D01*
X646945Y783727D01*
X647003Y783847D01*
X648057Y785671D01*
X648131Y785782D01*
X648219Y785882D01*
X649708Y787372D01*
X649808Y787459D01*
X649919Y787533D01*
X651743Y788587D01*
X651862Y788645D01*
X651989Y788688D01*
X654023Y789233D01*
X654154Y789259D01*
X654287Y789268D01*
X654287D01*
D01*
X655340Y789268D01*
D02*
G37*
G36*
X478686Y789259D02*
X478817Y789233D01*
X480851Y788688D01*
X480978Y788645D01*
X481097Y788587D01*
X482921Y787533D01*
X483032Y787459D01*
X483132Y787372D01*
X484622Y785882D01*
X484709Y785782D01*
X484783Y785671D01*
X485837Y783847D01*
X485896Y783727D01*
X485938Y783601D01*
X486483Y781567D01*
X486510Y781436D01*
X486518Y781303D01*
Y779197D01*
X486510Y779064D01*
X486483Y778933D01*
X485938Y776899D01*
X485896Y776773D01*
X485837Y776653D01*
X484783Y774829D01*
X484709Y774718D01*
X484622Y774618D01*
X483132Y773128D01*
X483032Y773041D01*
X482921Y772967D01*
X481097Y771913D01*
X480978Y771854D01*
X480851Y771812D01*
X478817Y771266D01*
X478686Y771240D01*
X478553Y771232D01*
X453500D01*
X453367Y771240D01*
X453237Y771266D01*
X453110Y771309D01*
X452991Y771368D01*
X452880Y771442D01*
X452780Y771530D01*
X452692Y771630D01*
X452618Y771741D01*
X452559Y771860D01*
X452517Y771986D01*
X452491Y772117D01*
X452482Y772250D01*
Y788250D01*
X452491Y788383D01*
X452517Y788513D01*
X452559Y788640D01*
X452618Y788759D01*
X452692Y788870D01*
X452780Y788970D01*
X452880Y789058D01*
X452991Y789132D01*
X453110Y789191D01*
X453237Y789233D01*
X453367Y789259D01*
X453500Y789268D01*
X477500D01*
X478553Y789268D01*
X478553D01*
D01*
X478686Y789259D01*
D02*
G37*
G36*
X655340Y763868D02*
X679340D01*
X679473Y763859D01*
X679604Y763833D01*
X679730Y763791D01*
X679849Y763732D01*
X679960Y763658D01*
X680060Y763570D01*
X680148Y763470D01*
X680222Y763359D01*
X680281Y763240D01*
X680323Y763113D01*
X680350Y762983D01*
X680358Y762850D01*
Y746850D01*
X680350Y746717D01*
X680323Y746587D01*
X680281Y746460D01*
X680222Y746341D01*
X680148Y746230D01*
X680060Y746130D01*
X679960Y746042D01*
X679849Y745968D01*
X679730Y745909D01*
X679604Y745866D01*
X679473Y745841D01*
X679340Y745832D01*
X654287D01*
X654154Y745841D01*
X654023Y745866D01*
X651989Y746412D01*
X651862Y746454D01*
X651743Y746513D01*
X649919Y747567D01*
X649808Y747641D01*
X649708Y747728D01*
X648219Y749218D01*
X648131Y749318D01*
X648057Y749429D01*
X647003Y751253D01*
X646974Y751313D01*
X646945Y751373D01*
X646902Y751499D01*
X646357Y753533D01*
X646331Y753664D01*
X646322Y753797D01*
Y755903D01*
X646331Y756036D01*
X646357Y756167D01*
X646902Y758201D01*
X646945Y758327D01*
X647003Y758447D01*
X648057Y760271D01*
X648131Y760382D01*
X648219Y760482D01*
X649708Y761972D01*
X649808Y762059D01*
X649919Y762133D01*
X651743Y763187D01*
X651862Y763245D01*
X651989Y763288D01*
X654023Y763833D01*
X654154Y763859D01*
X654287Y763868D01*
X654287D01*
D01*
X655340Y763868D01*
D02*
G37*
G36*
X478686Y763859D02*
X478817Y763833D01*
X480851Y763288D01*
X480978Y763245D01*
X481097Y763187D01*
X482921Y762133D01*
X483032Y762059D01*
X483132Y761972D01*
X484622Y760482D01*
X484709Y760382D01*
X484783Y760271D01*
X485837Y758447D01*
X485896Y758327D01*
X485938Y758201D01*
X486483Y756167D01*
X486510Y756036D01*
X486518Y755903D01*
Y753797D01*
X486510Y753664D01*
X486483Y753533D01*
X485938Y751499D01*
X485896Y751373D01*
X485837Y751253D01*
X484783Y749429D01*
X484709Y749318D01*
X484622Y749218D01*
X483132Y747728D01*
X483032Y747641D01*
X482921Y747567D01*
X481097Y746513D01*
X480978Y746454D01*
X480851Y746412D01*
X478817Y745866D01*
X478686Y745841D01*
X478553Y745832D01*
X453500D01*
X453367Y745841D01*
X453237Y745866D01*
X453110Y745909D01*
X452991Y745968D01*
X452880Y746042D01*
X452780Y746130D01*
X452692Y746230D01*
X452618Y746341D01*
X452559Y746460D01*
X452517Y746587D01*
X452491Y746717D01*
X452482Y746850D01*
Y762850D01*
X452491Y762983D01*
X452517Y763113D01*
X452559Y763240D01*
X452618Y763359D01*
X452692Y763470D01*
X452780Y763570D01*
X452880Y763658D01*
X452991Y763732D01*
X453110Y763791D01*
X453237Y763833D01*
X453367Y763859D01*
X453500Y763868D01*
X477500D01*
X478553Y763868D01*
X478553D01*
D01*
X478686Y763859D01*
D02*
G37*
G36*
X655340Y738468D02*
X679340D01*
X679473Y738459D01*
X679604Y738434D01*
X679730Y738391D01*
X679849Y738332D01*
X679960Y738258D01*
X680060Y738170D01*
X680148Y738070D01*
X680222Y737959D01*
X680281Y737840D01*
X680323Y737713D01*
X680350Y737583D01*
X680358Y737450D01*
Y721450D01*
X680350Y721317D01*
X680323Y721187D01*
X680281Y721060D01*
X680222Y720941D01*
X680148Y720830D01*
X680060Y720730D01*
X679960Y720642D01*
X679849Y720568D01*
X679730Y720509D01*
X679604Y720467D01*
X679473Y720441D01*
X679340Y720432D01*
X654287D01*
X654154Y720441D01*
X654023Y720467D01*
X651989Y721012D01*
X651862Y721055D01*
X651743Y721113D01*
X649919Y722167D01*
X649808Y722241D01*
X649708Y722328D01*
X648219Y723818D01*
X648131Y723918D01*
X648057Y724029D01*
X647003Y725853D01*
X646974Y725913D01*
X646945Y725973D01*
X646902Y726099D01*
X646357Y728133D01*
X646331Y728264D01*
X646322Y728397D01*
Y730503D01*
X646331Y730636D01*
X646357Y730767D01*
X646902Y732801D01*
X646945Y732927D01*
X647003Y733047D01*
X648057Y734871D01*
X648131Y734982D01*
X648219Y735082D01*
X649708Y736572D01*
X649808Y736659D01*
X649919Y736733D01*
X651743Y737787D01*
X651862Y737846D01*
X651989Y737888D01*
X654023Y738434D01*
X654154Y738459D01*
X654287Y738468D01*
X654287D01*
D01*
X655340Y738468D01*
D02*
G37*
G36*
X478686Y738459D02*
X478817Y738434D01*
X480851Y737888D01*
X480978Y737846D01*
X481097Y737787D01*
X482921Y736733D01*
X483032Y736659D01*
X483132Y736572D01*
X484622Y735082D01*
X484709Y734982D01*
X484783Y734871D01*
X485837Y733047D01*
X485896Y732927D01*
X485938Y732801D01*
X486483Y730767D01*
X486510Y730636D01*
X486518Y730503D01*
Y728397D01*
X486510Y728264D01*
X486483Y728133D01*
X485938Y726099D01*
X485896Y725973D01*
X485837Y725853D01*
X484783Y724029D01*
X484709Y723918D01*
X484622Y723818D01*
X483132Y722328D01*
X483032Y722241D01*
X482921Y722167D01*
X481097Y721113D01*
X480978Y721055D01*
X480851Y721012D01*
X478817Y720467D01*
X478686Y720441D01*
X478553Y720432D01*
X453500D01*
X453367Y720441D01*
X453237Y720467D01*
X453110Y720509D01*
X452991Y720568D01*
X452880Y720642D01*
X452780Y720730D01*
X452692Y720830D01*
X452618Y720941D01*
X452559Y721060D01*
X452517Y721187D01*
X452491Y721317D01*
X452482Y721450D01*
Y737450D01*
X452491Y737583D01*
X452517Y737713D01*
X452559Y737840D01*
X452618Y737959D01*
X452692Y738070D01*
X452780Y738170D01*
X452880Y738258D01*
X452991Y738332D01*
X453110Y738391D01*
X453237Y738434D01*
X453367Y738459D01*
X453500Y738468D01*
X477500D01*
X478553Y738468D01*
X478553D01*
D01*
X478686Y738459D01*
D02*
G37*
G36*
X655340Y713068D02*
X679340D01*
X679473Y713059D01*
X679604Y713034D01*
X679730Y712991D01*
X679849Y712932D01*
X679960Y712858D01*
X680060Y712770D01*
X680148Y712670D01*
X680222Y712559D01*
X680281Y712440D01*
X680323Y712314D01*
X680350Y712183D01*
X680358Y712050D01*
Y696050D01*
X680350Y695917D01*
X680323Y695787D01*
X680281Y695660D01*
X680222Y695541D01*
X680148Y695430D01*
X680060Y695330D01*
X679960Y695242D01*
X679849Y695168D01*
X679730Y695109D01*
X679604Y695067D01*
X679473Y695041D01*
X679340Y695032D01*
X654287D01*
X654154Y695041D01*
X654023Y695067D01*
X651989Y695612D01*
X651862Y695655D01*
X651743Y695713D01*
X649919Y696767D01*
X649808Y696841D01*
X649708Y696928D01*
X648219Y698418D01*
X648131Y698518D01*
X648057Y698629D01*
X647003Y700453D01*
X646974Y700513D01*
X646945Y700573D01*
X646902Y700699D01*
X646357Y702733D01*
X646331Y702864D01*
X646322Y702997D01*
Y705103D01*
X646331Y705236D01*
X646357Y705367D01*
X646902Y707401D01*
X646945Y707527D01*
X647003Y707647D01*
X648057Y709471D01*
X648131Y709582D01*
X648219Y709682D01*
X649708Y711172D01*
X649808Y711259D01*
X649919Y711333D01*
X651743Y712387D01*
X651862Y712446D01*
X651989Y712488D01*
X654023Y713034D01*
X654154Y713059D01*
X654287Y713068D01*
X654287D01*
D01*
X655340Y713068D01*
D02*
G37*
G36*
X478686Y713059D02*
X478817Y713034D01*
X480851Y712488D01*
X480978Y712446D01*
X481097Y712387D01*
X482921Y711333D01*
X483032Y711259D01*
X483132Y711172D01*
X484622Y709682D01*
X484709Y709582D01*
X484783Y709471D01*
X485837Y707647D01*
X485896Y707527D01*
X485938Y707401D01*
X486483Y705367D01*
X486510Y705236D01*
X486518Y705103D01*
Y702997D01*
X486510Y702864D01*
X486483Y702733D01*
X485938Y700699D01*
X485896Y700573D01*
X485837Y700453D01*
X484783Y698629D01*
X484709Y698518D01*
X484622Y698418D01*
X483132Y696928D01*
X483032Y696841D01*
X482921Y696767D01*
X481097Y695713D01*
X480978Y695655D01*
X480851Y695612D01*
X478817Y695067D01*
X478686Y695041D01*
X478553Y695032D01*
X453500D01*
X453367Y695041D01*
X453237Y695067D01*
X453110Y695109D01*
X452991Y695168D01*
X452880Y695242D01*
X452780Y695330D01*
X452692Y695430D01*
X452618Y695541D01*
X452559Y695660D01*
X452517Y695787D01*
X452491Y695917D01*
X452482Y696050D01*
Y712050D01*
X452491Y712183D01*
X452517Y712314D01*
X452559Y712440D01*
X452618Y712559D01*
X452692Y712670D01*
X452780Y712770D01*
X452880Y712858D01*
X452991Y712932D01*
X453110Y712991D01*
X453237Y713034D01*
X453367Y713059D01*
X453500Y713068D01*
X477500D01*
X478553Y713068D01*
X478553D01*
D01*
X478686Y713059D01*
D02*
G37*
G36*
X655340Y687668D02*
X679340D01*
X679473Y687660D01*
X679604Y687634D01*
X679730Y687591D01*
X679849Y687532D01*
X679960Y687458D01*
X680060Y687370D01*
X680148Y687270D01*
X680222Y687159D01*
X680281Y687040D01*
X680323Y686914D01*
X680350Y686783D01*
X680358Y686650D01*
Y670650D01*
X680350Y670517D01*
X680323Y670387D01*
X680281Y670260D01*
X680222Y670141D01*
X680148Y670030D01*
X680060Y669930D01*
X679960Y669842D01*
X679849Y669768D01*
X679730Y669709D01*
X679604Y669667D01*
X679473Y669641D01*
X679340Y669632D01*
X654287D01*
X654154Y669641D01*
X654023Y669667D01*
X651989Y670212D01*
X651862Y670255D01*
X651743Y670313D01*
X649919Y671367D01*
X649808Y671441D01*
X649708Y671528D01*
X648219Y673018D01*
X648131Y673118D01*
X648057Y673229D01*
X647003Y675053D01*
X646974Y675113D01*
X646945Y675173D01*
X646902Y675299D01*
X646357Y677333D01*
X646331Y677464D01*
X646322Y677597D01*
Y679703D01*
X646331Y679836D01*
X646357Y679967D01*
X646902Y682001D01*
X646945Y682128D01*
X647003Y682247D01*
X648057Y684071D01*
X648131Y684182D01*
X648219Y684282D01*
X649708Y685772D01*
X649808Y685859D01*
X649919Y685933D01*
X651743Y686987D01*
X651862Y687046D01*
X651989Y687088D01*
X654023Y687634D01*
X654154Y687660D01*
X654287Y687668D01*
X654287D01*
D01*
X655340Y687668D01*
D02*
G37*
G36*
X478686Y687660D02*
X478817Y687634D01*
X480851Y687088D01*
X480978Y687046D01*
X481097Y686987D01*
X482921Y685933D01*
X483032Y685859D01*
X483132Y685772D01*
X484622Y684282D01*
X484709Y684182D01*
X484783Y684071D01*
X485837Y682247D01*
X485896Y682128D01*
X485938Y682001D01*
X486483Y679967D01*
X486510Y679836D01*
X486518Y679703D01*
Y677597D01*
X486510Y677464D01*
X486483Y677333D01*
X485938Y675299D01*
X485896Y675173D01*
X485837Y675053D01*
X484783Y673229D01*
X484709Y673118D01*
X484622Y673018D01*
X483132Y671528D01*
X483032Y671441D01*
X482921Y671367D01*
X481097Y670313D01*
X480978Y670255D01*
X480851Y670212D01*
X478817Y669667D01*
X478686Y669641D01*
X478553Y669632D01*
X453500D01*
X453367Y669641D01*
X453237Y669667D01*
X453110Y669709D01*
X452991Y669768D01*
X452880Y669842D01*
X452780Y669930D01*
X452692Y670030D01*
X452618Y670141D01*
X452559Y670260D01*
X452517Y670387D01*
X452491Y670517D01*
X452482Y670650D01*
Y686650D01*
X452491Y686783D01*
X452517Y686914D01*
X452559Y687040D01*
X452618Y687159D01*
X452692Y687270D01*
X452780Y687370D01*
X452880Y687458D01*
X452991Y687532D01*
X453110Y687591D01*
X453237Y687634D01*
X453367Y687660D01*
X453500Y687668D01*
X477500D01*
X478553Y687668D01*
X478553D01*
D01*
X478686Y687660D01*
D02*
G37*
G36*
X655340Y662268D02*
X679340D01*
X679473Y662260D01*
X679604Y662234D01*
X679730Y662191D01*
X679849Y662132D01*
X679960Y662058D01*
X680060Y661970D01*
X680148Y661870D01*
X680222Y661759D01*
X680281Y661640D01*
X680323Y661514D01*
X680350Y661383D01*
X680358Y661250D01*
Y645250D01*
X680350Y645117D01*
X680323Y644986D01*
X680281Y644860D01*
X680222Y644741D01*
X680148Y644630D01*
X680060Y644530D01*
X679960Y644442D01*
X679849Y644368D01*
X679730Y644309D01*
X679604Y644267D01*
X679473Y644240D01*
X679340Y644232D01*
X654287D01*
X654154Y644240D01*
X654023Y644267D01*
X651989Y644812D01*
X651862Y644855D01*
X651743Y644913D01*
X649919Y645967D01*
X649808Y646041D01*
X649708Y646128D01*
X648219Y647618D01*
X648131Y647718D01*
X648057Y647829D01*
X647003Y649653D01*
X646974Y649713D01*
X646945Y649772D01*
X646902Y649899D01*
X646357Y651933D01*
X646331Y652064D01*
X646322Y652197D01*
Y654303D01*
X646331Y654436D01*
X646357Y654567D01*
X646902Y656601D01*
X646945Y656728D01*
X647003Y656847D01*
X648057Y658671D01*
X648131Y658782D01*
X648219Y658882D01*
X649708Y660372D01*
X649808Y660459D01*
X649919Y660533D01*
X651743Y661587D01*
X651862Y661646D01*
X651989Y661688D01*
X654023Y662234D01*
X654154Y662260D01*
X654287Y662268D01*
X654287D01*
D01*
X655340Y662268D01*
D02*
G37*
G36*
X478686Y662260D02*
X478817Y662234D01*
X480851Y661688D01*
X480978Y661646D01*
X481097Y661587D01*
X482921Y660533D01*
X483032Y660459D01*
X483132Y660372D01*
X484622Y658882D01*
X484709Y658782D01*
X484783Y658671D01*
X485837Y656847D01*
X485896Y656728D01*
X485938Y656601D01*
X486483Y654567D01*
X486510Y654436D01*
X486518Y654303D01*
Y652197D01*
X486510Y652064D01*
X486483Y651933D01*
X485938Y649899D01*
X485896Y649772D01*
X485837Y649653D01*
X484783Y647829D01*
X484709Y647718D01*
X484622Y647618D01*
X483132Y646128D01*
X483032Y646041D01*
X482921Y645967D01*
X481097Y644913D01*
X480978Y644855D01*
X480851Y644812D01*
X478817Y644267D01*
X478686Y644240D01*
X478553Y644232D01*
X453500D01*
X453367Y644240D01*
X453237Y644267D01*
X453110Y644309D01*
X452991Y644368D01*
X452880Y644442D01*
X452780Y644530D01*
X452692Y644630D01*
X452618Y644741D01*
X452559Y644860D01*
X452517Y644986D01*
X452491Y645117D01*
X452482Y645250D01*
Y661250D01*
X452491Y661383D01*
X452517Y661514D01*
X452559Y661640D01*
X452618Y661759D01*
X452692Y661870D01*
X452780Y661970D01*
X452880Y662058D01*
X452991Y662132D01*
X453110Y662191D01*
X453237Y662234D01*
X453367Y662260D01*
X453500Y662268D01*
X477500D01*
X478553Y662268D01*
X478553D01*
D01*
X478686Y662260D01*
D02*
G37*
G36*
X655340Y636868D02*
X679340D01*
X679473Y636860D01*
X679604Y636833D01*
X679730Y636791D01*
X679849Y636732D01*
X679960Y636658D01*
X680060Y636570D01*
X680148Y636470D01*
X680222Y636359D01*
X680281Y636240D01*
X680323Y636114D01*
X680350Y635983D01*
X680358Y635850D01*
Y619850D01*
X680350Y619717D01*
X680323Y619586D01*
X680281Y619460D01*
X680222Y619341D01*
X680148Y619230D01*
X680060Y619130D01*
X679960Y619042D01*
X679849Y618968D01*
X679730Y618909D01*
X679604Y618867D01*
X679473Y618840D01*
X679340Y618832D01*
X654287D01*
X654154Y618840D01*
X654023Y618867D01*
X651989Y619412D01*
X651862Y619454D01*
X651743Y619513D01*
X649919Y620567D01*
X649808Y620641D01*
X649708Y620728D01*
X648219Y622218D01*
X648131Y622318D01*
X648057Y622429D01*
X647003Y624253D01*
X646974Y624313D01*
X646945Y624372D01*
X646902Y624499D01*
X646357Y626533D01*
X646331Y626664D01*
X646322Y626797D01*
Y628903D01*
X646331Y629036D01*
X646357Y629167D01*
X646902Y631201D01*
X646945Y631328D01*
X647003Y631447D01*
X648057Y633271D01*
X648131Y633382D01*
X648219Y633482D01*
X649708Y634972D01*
X649808Y635059D01*
X649919Y635133D01*
X651743Y636187D01*
X651862Y636245D01*
X651989Y636288D01*
X654023Y636833D01*
X654154Y636860D01*
X654287Y636868D01*
X654287D01*
D01*
X655340Y636868D01*
D02*
G37*
G36*
X478686Y636860D02*
X478817Y636833D01*
X480851Y636288D01*
X480978Y636245D01*
X481097Y636187D01*
X482921Y635133D01*
X483032Y635059D01*
X483132Y634972D01*
X484622Y633482D01*
X484709Y633382D01*
X484783Y633271D01*
X485837Y631447D01*
X485896Y631328D01*
X485938Y631201D01*
X486483Y629167D01*
X486510Y629036D01*
X486518Y628903D01*
Y626797D01*
X486510Y626664D01*
X486483Y626533D01*
X485938Y624499D01*
X485896Y624372D01*
X485837Y624253D01*
X484783Y622429D01*
X484709Y622318D01*
X484622Y622218D01*
X483132Y620728D01*
X483032Y620641D01*
X482921Y620567D01*
X481097Y619513D01*
X480978Y619454D01*
X480851Y619412D01*
X478817Y618867D01*
X478686Y618840D01*
X478553Y618832D01*
X453500D01*
X453367Y618840D01*
X453237Y618867D01*
X453110Y618909D01*
X452991Y618968D01*
X452880Y619042D01*
X452780Y619130D01*
X452692Y619230D01*
X452618Y619341D01*
X452559Y619460D01*
X452517Y619586D01*
X452491Y619717D01*
X452482Y619850D01*
Y635850D01*
X452491Y635983D01*
X452517Y636114D01*
X452559Y636240D01*
X452618Y636359D01*
X452692Y636470D01*
X452780Y636570D01*
X452880Y636658D01*
X452991Y636732D01*
X453110Y636791D01*
X453237Y636833D01*
X453367Y636860D01*
X453500Y636868D01*
X477500D01*
X478553Y636868D01*
X478553D01*
D01*
X478686Y636860D01*
D02*
G37*
G36*
X655340Y611468D02*
X679340D01*
X679473Y611460D01*
X679604Y611433D01*
X679730Y611391D01*
X679849Y611332D01*
X679960Y611258D01*
X680060Y611170D01*
X680148Y611070D01*
X680222Y610959D01*
X680281Y610840D01*
X680323Y610714D01*
X680350Y610583D01*
X680358Y610450D01*
Y594450D01*
X680350Y594317D01*
X680323Y594187D01*
X680281Y594060D01*
X680222Y593941D01*
X680148Y593830D01*
X680060Y593730D01*
X679960Y593642D01*
X679849Y593568D01*
X679730Y593509D01*
X679604Y593466D01*
X679473Y593441D01*
X679340Y593432D01*
X654287D01*
X654154Y593441D01*
X654023Y593466D01*
X651989Y594012D01*
X651862Y594054D01*
X651743Y594113D01*
X649919Y595167D01*
X649808Y595241D01*
X649708Y595328D01*
X648219Y596818D01*
X648131Y596918D01*
X648057Y597029D01*
X647003Y598853D01*
X646974Y598913D01*
X646945Y598973D01*
X646902Y599099D01*
X646357Y601133D01*
X646331Y601264D01*
X646322Y601397D01*
Y603503D01*
X646331Y603636D01*
X646357Y603767D01*
X646902Y605801D01*
X646945Y605928D01*
X647003Y606047D01*
X648057Y607871D01*
X648131Y607982D01*
X648219Y608082D01*
X649708Y609572D01*
X649808Y609659D01*
X649919Y609733D01*
X651743Y610787D01*
X651862Y610845D01*
X651989Y610888D01*
X654023Y611433D01*
X654154Y611460D01*
X654287Y611468D01*
X654287D01*
D01*
X655340Y611468D01*
D02*
G37*
G36*
X478686Y611460D02*
X478817Y611433D01*
X480851Y610888D01*
X480978Y610845D01*
X481097Y610787D01*
X482921Y609733D01*
X483032Y609659D01*
X483132Y609572D01*
X484622Y608082D01*
X484709Y607982D01*
X484783Y607871D01*
X485837Y606047D01*
X485896Y605928D01*
X485938Y605801D01*
X486483Y603767D01*
X486510Y603636D01*
X486518Y603503D01*
Y601397D01*
X486510Y601264D01*
X486483Y601133D01*
X485938Y599099D01*
X485896Y598973D01*
X485837Y598853D01*
X484783Y597029D01*
X484709Y596918D01*
X484622Y596818D01*
X483132Y595328D01*
X483032Y595241D01*
X482921Y595167D01*
X481097Y594113D01*
X480978Y594054D01*
X480851Y594012D01*
X478817Y593466D01*
X478686Y593441D01*
X478553Y593432D01*
X453500D01*
X453367Y593441D01*
X453237Y593466D01*
X453110Y593509D01*
X452991Y593568D01*
X452880Y593642D01*
X452780Y593730D01*
X452692Y593830D01*
X452618Y593941D01*
X452559Y594060D01*
X452517Y594187D01*
X452491Y594317D01*
X452482Y594450D01*
Y610450D01*
X452491Y610583D01*
X452517Y610714D01*
X452559Y610840D01*
X452618Y610959D01*
X452692Y611070D01*
X452780Y611170D01*
X452880Y611258D01*
X452991Y611332D01*
X453110Y611391D01*
X453237Y611433D01*
X453367Y611460D01*
X453500Y611468D01*
X477500D01*
X478553Y611468D01*
X478553D01*
D01*
X478686Y611460D01*
D02*
G37*
G36*
X655340Y586068D02*
X679340D01*
X679473Y586059D01*
X679604Y586034D01*
X679730Y585991D01*
X679849Y585932D01*
X679960Y585858D01*
X680060Y585770D01*
X680148Y585670D01*
X680222Y585559D01*
X680281Y585440D01*
X680323Y585313D01*
X680350Y585183D01*
X680358Y585050D01*
Y569050D01*
X680350Y568917D01*
X680323Y568787D01*
X680281Y568660D01*
X680222Y568541D01*
X680148Y568430D01*
X680060Y568330D01*
X679960Y568242D01*
X679849Y568168D01*
X679730Y568109D01*
X679604Y568066D01*
X679473Y568041D01*
X679340Y568032D01*
X654287D01*
X654154Y568041D01*
X654023Y568066D01*
X651989Y568612D01*
X651862Y568655D01*
X651743Y568713D01*
X649919Y569767D01*
X649808Y569841D01*
X649708Y569928D01*
X648219Y571418D01*
X648131Y571518D01*
X648057Y571629D01*
X647003Y573453D01*
X646974Y573513D01*
X646945Y573573D01*
X646902Y573699D01*
X646357Y575733D01*
X646331Y575864D01*
X646322Y575997D01*
Y578103D01*
X646331Y578236D01*
X646357Y578367D01*
X646902Y580401D01*
X646945Y580527D01*
X647003Y580647D01*
X648057Y582471D01*
X648131Y582582D01*
X648219Y582682D01*
X649708Y584172D01*
X649808Y584259D01*
X649919Y584333D01*
X651743Y585387D01*
X651862Y585446D01*
X651989Y585488D01*
X654023Y586034D01*
X654154Y586059D01*
X654287Y586068D01*
X654287D01*
D01*
X655340Y586068D01*
D02*
G37*
G36*
X478686Y586059D02*
X478817Y586034D01*
X480851Y585488D01*
X480978Y585446D01*
X481097Y585387D01*
X482921Y584333D01*
X483032Y584259D01*
X483132Y584172D01*
X484622Y582682D01*
X484709Y582582D01*
X484783Y582471D01*
X485837Y580647D01*
X485896Y580527D01*
X485938Y580401D01*
X486483Y578367D01*
X486510Y578236D01*
X486518Y578103D01*
Y575997D01*
X486510Y575864D01*
X486483Y575733D01*
X485938Y573699D01*
X485896Y573573D01*
X485837Y573453D01*
X484783Y571629D01*
X484709Y571518D01*
X484622Y571418D01*
X483132Y569928D01*
X483032Y569841D01*
X482921Y569767D01*
X481097Y568713D01*
X480978Y568655D01*
X480851Y568612D01*
X478817Y568066D01*
X478686Y568041D01*
X478553Y568032D01*
X453500D01*
X453367Y568041D01*
X453237Y568066D01*
X453110Y568109D01*
X452991Y568168D01*
X452880Y568242D01*
X452780Y568330D01*
X452692Y568430D01*
X452618Y568541D01*
X452559Y568660D01*
X452517Y568787D01*
X452491Y568917D01*
X452482Y569050D01*
Y585050D01*
X452491Y585183D01*
X452517Y585313D01*
X452559Y585440D01*
X452618Y585559D01*
X452692Y585670D01*
X452780Y585770D01*
X452880Y585858D01*
X452991Y585932D01*
X453110Y585991D01*
X453237Y586034D01*
X453367Y586059D01*
X453500Y586068D01*
X477500D01*
X478553Y586068D01*
X478553D01*
D01*
X478686Y586059D01*
D02*
G37*
G36*
X655340Y560668D02*
X679340D01*
X679473Y560659D01*
X679604Y560634D01*
X679730Y560591D01*
X679849Y560532D01*
X679960Y560458D01*
X680060Y560370D01*
X680148Y560270D01*
X680222Y560159D01*
X680281Y560040D01*
X680323Y559913D01*
X680350Y559783D01*
X680358Y559650D01*
Y543650D01*
X680350Y543517D01*
X680323Y543386D01*
X680281Y543260D01*
X680222Y543141D01*
X680148Y543030D01*
X680060Y542930D01*
X679960Y542842D01*
X679849Y542768D01*
X679730Y542709D01*
X679604Y542667D01*
X679473Y542640D01*
X679340Y542632D01*
X654287D01*
X654154Y542640D01*
X654023Y542667D01*
X651989Y543212D01*
X651862Y543255D01*
X651743Y543313D01*
X649919Y544367D01*
X649808Y544441D01*
X649708Y544528D01*
X648219Y546018D01*
X648131Y546118D01*
X648057Y546229D01*
X647003Y548053D01*
X646974Y548113D01*
X646945Y548172D01*
X646902Y548299D01*
X646357Y550333D01*
X646331Y550464D01*
X646322Y550597D01*
Y552703D01*
X646331Y552836D01*
X646357Y552967D01*
X646902Y555001D01*
X646945Y555127D01*
X647003Y555247D01*
X648057Y557071D01*
X648131Y557182D01*
X648219Y557282D01*
X649708Y558772D01*
X649808Y558859D01*
X649919Y558933D01*
X651743Y559987D01*
X651862Y560046D01*
X651989Y560088D01*
X654023Y560634D01*
X654154Y560659D01*
X654287Y560668D01*
X654287D01*
D01*
X655340Y560668D01*
D02*
G37*
G36*
X478686Y560659D02*
X478817Y560634D01*
X480851Y560088D01*
X480978Y560046D01*
X481097Y559987D01*
X482921Y558933D01*
X483032Y558859D01*
X483132Y558772D01*
X484622Y557282D01*
X484709Y557182D01*
X484783Y557071D01*
X485837Y555247D01*
X485896Y555127D01*
X485938Y555001D01*
X486483Y552967D01*
X486510Y552836D01*
X486518Y552703D01*
Y550597D01*
X486510Y550464D01*
X486483Y550333D01*
X485938Y548299D01*
X485896Y548172D01*
X485837Y548053D01*
X484783Y546229D01*
X484709Y546118D01*
X484622Y546018D01*
X483132Y544528D01*
X483032Y544441D01*
X482921Y544367D01*
X481097Y543313D01*
X480978Y543255D01*
X480851Y543212D01*
X478817Y542667D01*
X478686Y542640D01*
X478553Y542632D01*
X453500D01*
X453367Y542640D01*
X453237Y542667D01*
X453110Y542709D01*
X452991Y542768D01*
X452880Y542842D01*
X452780Y542930D01*
X452692Y543030D01*
X452618Y543141D01*
X452559Y543260D01*
X452517Y543386D01*
X452491Y543517D01*
X452482Y543650D01*
Y559650D01*
X452491Y559783D01*
X452517Y559913D01*
X452559Y560040D01*
X452618Y560159D01*
X452692Y560270D01*
X452780Y560370D01*
X452880Y560458D01*
X452991Y560532D01*
X453110Y560591D01*
X453237Y560634D01*
X453367Y560659D01*
X453500Y560668D01*
X477500D01*
X478553Y560668D01*
X478553D01*
D01*
X478686Y560659D01*
D02*
G37*
D17*
X773430Y619760D02*
D03*
Y607060D02*
D03*
Y594360D02*
D03*
Y581660D02*
D03*
Y568960D02*
D03*
Y556260D02*
D03*
Y543560D02*
D03*
Y530860D02*
D03*
X821690D02*
D03*
Y543560D02*
D03*
Y556260D02*
D03*
Y568960D02*
D03*
Y581660D02*
D03*
Y594360D02*
D03*
Y607060D02*
D03*
Y619760D02*
D03*
D28*
X467020Y729290D02*
D03*
X665820Y627690D02*
D03*
Y754690D02*
D03*
Y500690D02*
D03*
Y373690D02*
D03*
X467020Y627690D02*
D03*
Y373690D02*
D03*
Y500690D02*
D03*
X665820Y805490D02*
D03*
X467020Y780090D02*
D03*
Y805490D02*
D03*
Y322890D02*
D03*
Y348290D02*
D03*
Y399090D02*
D03*
Y424490D02*
D03*
Y449890D02*
D03*
Y475290D02*
D03*
Y526090D02*
D03*
Y551490D02*
D03*
Y576890D02*
D03*
Y602290D02*
D03*
Y653090D02*
D03*
Y678490D02*
D03*
Y703890D02*
D03*
X665820Y780090D02*
D03*
Y729290D02*
D03*
Y703890D02*
D03*
Y678490D02*
D03*
Y653090D02*
D03*
Y602290D02*
D03*
Y576890D02*
D03*
Y551490D02*
D03*
Y526090D02*
D03*
Y475290D02*
D03*
Y449890D02*
D03*
Y424490D02*
D03*
Y399090D02*
D03*
Y348290D02*
D03*
Y322890D02*
D03*
D29*
X866280Y799670D02*
D03*
X947280Y780670D02*
D03*
X740550Y799670D02*
D03*
X821550Y780670D02*
D03*
D30*
X720090Y608170D02*
D03*
Y454820D02*
D03*
Y522130D02*
D03*
Y588170D02*
D03*
Y542130D02*
D03*
Y474820D02*
D03*
X876300Y589440D02*
D03*
Y609440D02*
D03*
Y542130D02*
D03*
Y522130D02*
D03*
X773430Y454980D02*
D03*
Y474980D02*
D03*
D31*
X836770Y473710D02*
D03*
X816610Y425450D02*
D03*
X836610D02*
D03*
X816770Y473710D02*
D03*
D32*
X469520Y754690D02*
D03*
D33*
X914280Y665670D02*
D03*
X788550D02*
D03*
D34*
X866280Y706670D02*
D03*
X740550D02*
D03*
D35*
X947280Y807670D02*
D03*
X821550D02*
D03*
D36*
X591820Y314690D02*
D03*
X566420D02*
D03*
X541020D02*
D03*
D37*
X556519Y807262D02*
D03*
X576519D02*
D03*
X566519Y774262D02*
D03*
X541519Y739262D02*
D03*
Y714262D02*
D03*
Y689262D02*
D03*
D38*
X396240Y289560D02*
D03*
X394970Y819150D02*
D03*
X911860Y289560D02*
D03*
D39*
X403860Y508000D02*
D03*
Y533400D02*
D03*
Y422910D02*
D03*
Y397510D02*
D03*
Y643890D02*
D03*
Y618490D02*
D03*
D40*
Y558800D02*
D03*
Y448310D02*
D03*
Y669290D02*
D03*
D41*
X722630Y364490D02*
D03*
X839470D02*
D03*
D42*
X906780Y718670D02*
D03*
Y788670D02*
D03*
X781050Y718670D02*
D03*
Y788670D02*
D03*
D43*
X748030Y364490D02*
D03*
X864870D02*
D03*
D44*
X848360Y581660D02*
D03*
X744220Y585470D02*
D03*
X852170Y619760D02*
D03*
M02*
